<?xml version="1.0" encoding="utf-8"?>
<!-- Generator: Adobe Illustrator 27.5.0, SVG Export Plug-In . SVG Version: 6.00 Build 0)  -->
<svg version="1.1" xmlns="http://www.w3.org/2000/svg" xmlns:xlink="http://www.w3.org/1999/xlink" x="0px" y="0px"
	 viewBox="0 0 500 500" style="enable-background:new 0 0 500 500;" xml:space="preserve">
<g id="Floor">
	<ellipse style="fill:#F5F5F5;" cx="250" cy="337.575" rx="228.231" ry="135.425"/>
</g>
<g id="Shadows">
	<path style="fill:#E0E0E0;" d="M341.088,250.865l-9.315-5.377c-2.472-1.427-5.517-1.427-7.989,0l-211.206,121.88
		c-1.967,1.135-1.967,3.975,0,5.11l9.324,5.379c2.472,1.426,5.516,1.426,7.987-0.001l54.633-31.975l33.871,19.525
		c2.12,1.222,4.729,1.223,6.85,0.002l58.74-33.811c1.386-0.798,1.386-2.798,0.001-3.596l-34.267-19.744l91.37-52.283
		C343.055,254.84,343.055,252,341.088,250.865z"/>
	<ellipse style="fill:#E0E0E0;" cx="322.963" cy="403.721" rx="46.402" ry="25.211"/>
</g>
<g id="Clouds">
	<g>
		<path style="fill:#E6E6E6;" d="M160.372,75.945l-7.568,4.368v-6.007c0-3.489-2.855-4.696-6.345-2.681l-0.264,0.153
			c-1.535,0.886-2.946,2.254-4.046,3.805c-0.196-5.88-5.146-7.865-11.184-4.379l-0.467,0.271
			c-6.162,3.557-11.203,11.511-11.203,17.672v10.509l-6.988,4.033c-2.96,1.709-5.382,5.529-5.382,8.489
			c0,2.96,2.422,3.984,5.382,2.275l9.305-5.371c0.002,0.002,0.004,0.004,0.007,0.006l18.223-10.521
			c0.002-0.003,0.003-0.007,0.005-0.01l20.524-11.847c2.96-1.709,5.382-5.529,5.382-8.489
			C165.754,75.26,163.332,74.236,160.372,75.945z"/>
		<path style="fill:#E6E6E6;" d="M109.158,66.877l-5.134,2.963v-4.075c0-2.367-1.937-3.186-4.304-1.819l-0.179,0.104
			c-1.041,0.601-1.999,1.529-2.745,2.581c-0.133-3.989-3.491-5.336-7.588-2.971l-0.317,0.184c-4.18,2.413-7.6,7.809-7.6,11.989
			v7.129l-4.741,2.736c-2.008,1.159-3.651,3.751-3.651,5.759c0,2.008,1.643,2.703,3.651,1.543l6.313-3.644
			c0.002,0.001,0.003,0.003,0.005,0.004l12.363-7.138c0.001-0.002,0.002-0.004,0.003-0.006l13.924-8.037
			c2.008-1.159,3.651-3.751,3.651-5.759C112.81,66.412,111.167,65.717,109.158,66.877z"/>
	</g>
</g>
<g id="Plant">
	<g>
		<g>
			<path style="fill:#BA68C8;" d="M420.293,275.329l2.517,1.132l0.947,0.427l2.125,0.947c0,0,0.404-14.029,4.803-24.34
				c4.411-10.322,12.228-19.917,13.567-25.69c1.351-5.773-3.071-7.99-3.071-7.99c-9.329-3.556-18.382,10.011-20.887,21.314
				C417.799,252.433,420.293,275.329,420.293,275.329z"/>
			<path style="opacity:0.4;" d="M420.293,275.329l2.517,1.132l0.947,0.427l2.125,0.947c0,0,0.404-14.029,4.803-24.34
				c4.411-10.322,12.228-19.917,13.567-25.69c1.351-5.773-3.071-7.99-3.071-7.99c-9.329-3.556-18.382,10.011-20.887,21.314
				C417.799,252.433,420.293,275.329,420.293,275.329z"/>
			<g>
				<path style="fill:#FFFFFF;" d="M422.81,276.461l0.947,0.427c-1.986-39.35,15.449-53.298,15.634-53.436
					c0.208-0.162,0.242-0.45,0.081-0.647c-0.15-0.208-0.439-0.242-0.647-0.081C438.64,222.863,420.974,236.938,422.81,276.461z"/>
			</g>
		</g>
		<g>
			<path style="fill:#BA68C8;" d="M421.217,271.196c-0.15,3.614,3.741,10.103,3.741,10.103l6.674,4.722l0.878,0.623l9.768,6.916
				c0,0,4.769,0,7.367-4.976c2.598-4.976-1.155-10.392-0.069-13.856c1.085-3.464,7.713-4.468,7.436-8.51
				c-0.3-4.041-6.858-8.452-5.854-12.054c1.016-3.602,3.256-5.023,3.972-7.99c0.727-2.956-1.259-4.63-2.956-4.93
				c-2.24-0.393-5.115,0.115-8.002,2.863c-2.887,2.736-3.983,4.642-7.228,5.438c-3.245,0.797-6.639,0.289-8.371,3.025
				c-1.732,2.748,0.289,8.232-1.513,10.392C425.258,265.134,421.355,267.582,421.217,271.196z"/>
			<path style="fill:#FFFFFF;" d="M431.631,286.021l0.878,0.623c0.624-7.771,2.228-14.456,4.226-20.056
				c5.577-1.674,13.117-1.004,13.186-0.993c0.266,0.023,0.485-0.162,0.508-0.416c0.023-0.254-0.162-0.485-0.416-0.508
				c-0.312-0.023-7.251-0.635-12.897,0.843c5.219-13.983,12.724-20.91,12.839-21.014c0.185-0.173,0.208-0.462,0.035-0.647
				c-0.173-0.196-0.462-0.208-0.658-0.035c-0.115,0.104-8.036,7.413-13.347,22.111c-0.058,0.081-0.092,0.185-0.092,0.289
				C433.906,271.773,432.301,278.366,431.631,286.021z"/>
		</g>
	</g>
</g>
<g id="Device">
	<g>
		<g>
			<path style="fill:#263238;" d="M284.424,317.302c0,0-0.035,2.933-2.044,4.076l-57.87,33.022c-0.785,0.45-1.64,0.716-2.517,0.808
				c-1.282,0.127-2.598-0.139-3.764-0.797l-26.73-15.287c-1.132-0.635-1.743-1.905-1.559-3.175l2.817-19.444l4.318,2.609
				l60.987-32.988l-1.062,9.907c-0.485,4.468,1.767,8.787,5.692,10.957l1.201,0.67l15.149,8.371
				c-0.115-0.45-0.173-0.751-0.173-0.751l3.499-3.025C282.369,312.257,284.424,313.261,284.424,317.302z"/>
			<path style="fill:#455A64;" d="M284.424,317.302c0,0-0.035,2.933-2.044,4.076l-57.87,33.022c-0.785,0.45-1.64,0.716-2.517,0.808
				v-7.817l6.212-16.303c0,0,27.238-18.012,35.69-23.427l15.149,8.371c-0.115-0.45-0.173-0.751-0.173-0.751l3.499-3.025
				C282.369,312.257,284.424,313.261,284.424,317.302z"/>
			<path style="fill:#37474F;" d="M282.392,315.709l-57.05,32.572c-1.928,1.097-4.284,1.097-6.2,0.011l-22.1-12.505
				c-0.312-0.173-0.589-0.404-0.797-0.658c-0.589-0.67-0.878-1.559-0.739-2.471l2.771-19.178l60.145-32.526l-1.051,9.768
				c-0.3,2.84,0.508,5.623,2.171,7.817c0.901,1.201,2.067,2.228,3.441,2.99l19.386,10.727
				C283.72,313.007,283.731,314.947,282.392,315.709z"/>
			<path style="fill:#263238;" d="M259.542,298.54l-63.297,36.59c-0.589-0.67-0.878-1.559-0.739-2.471l2.771-19.178l60.145-32.526
				l-1.051,9.768C257.071,293.563,257.879,296.346,259.542,298.54z"/>
			<path style="fill:#263238;" d="M342.502,52.846c0,0.612-6.558,4.145-9.941,5.935v167.144c0,2.125-1.132,4.087-2.967,5.15
				l-211.678,123.21l1.605,10.957c-2.609,1.062-6.431-0.115-8.279-1.189c-4.007-2.344-4.157-6.327-4.157-6.327v-180.26
				c0-1.339,0.485-2.61,1.328-3.591c0.393-0.485,0.889-0.901,1.455-1.224L329.189,45.006c0,0,0.139-0.069,0.404-0.162
				c0.069-0.035,0.15-0.069,0.231-0.081c1.293-0.416,4.434-0.981,8.14,1.489C342.594,49.348,342.49,52.05,342.502,52.846z"/>
			<path style="fill:#455A64;" d="M342.502,52.846c0,0.612-6.558,4.145-9.941,5.935V71.99l-205.189,113.13l-18.959-11.246
				c0.393-0.485,0.889-0.901,1.455-1.224L329.189,45.006c0,0,0.139-0.069,0.404-0.162c0.069-0.035,0.15-0.069,0.231-0.081
				c1.293-0.416,4.434-0.981,8.14,1.489C342.594,49.348,342.49,52.05,342.502,52.846z"/>
			<path style="fill:#37474F;" d="M342.514,53.04v178.981c0,2.122-1.128,4.084-2.962,5.152L119.523,365.246
				c-1.097,0.639-2.474-0.153-2.474-1.423V183.568c0-1.987,1.057-3.825,2.774-4.824l219.325-127.64
				C340.641,50.235,342.514,51.312,342.514,53.04z"/>
			<path style="fill:#FFFFFF;" d="M331.493,63.016c1.389-0.808,3.13,0.194,3.13,1.8v154.31c0,1.974-1.049,3.799-2.755,4.791
				l-204.629,119.11c-1.021,0.594-2.301-0.142-2.301-1.323V186.209c0-1.848,0.983-3.557,2.58-4.487"/>
			<path style="fill:#EBEBEB;" d="M239.915,289.874l-21.576,12.556c-1.503,0.875-3.389-0.21-3.389-1.949v0
				c0-2.233,1.187-4.298,3.117-5.421l20.115-11.706c1.827-1.064,4.12,0.255,4.12,2.369l0,0
				C242.302,287.433,241.393,289.014,239.915,289.874z"/>
		</g>
		<g>
			<g>
				<g>
					<g>
						<path style="fill:#BA68C8;" d="M232.928,157.814l-1.265,0.73c-0.431,0.249-0.794,0.156-0.891-0.207
							c-0.48-1.79-1.29-3.264-2.379-4.388c-0.227-0.234-0.184-0.73,0.12-1.21l0.889-1.401c0.411-0.649,0.411-1.316,0-1.49
							l-3.673-1.553c-0.412-0.174-1.079,0.211-1.49,0.86l-0.887,1.4c-0.304,0.48-0.775,0.795-1.141,0.779
							c-1.752-0.078-3.693,0.233-5.762,0.947c-0.419,0.145-0.722-0.044-0.722-0.474v-1.262c0-0.582-0.472-0.781-1.053-0.445
							l-5.195,2.999c-0.582,0.336-1.053,1.08-1.053,1.662v1.262c0,0.43-0.303,0.968-0.722,1.308
							c-2.068,1.675-4.01,3.606-5.761,5.707c-0.366,0.438-0.836,0.667-1.141,0.539l-0.888-0.375c-0.411-0.174-1.079,0.211-1.49,0.86
							l-3.673,5.794c-0.411,0.649-0.411,1.316,0,1.49l1.105,0.638c0.073,0.206,0.05,0.492-0.095,0.81
							c-1.088,2.38-1.898,4.788-2.378,7.132c-0.097,0.476-0.461,0.988-0.891,1.237l-1.267,0.731
							c-0.582,0.336-1.054,1.08-1.054,1.662v5.195c0,0.582,0.472,0.781,1.054,0.445l1.267-0.732
							c0.431-0.249,0.794-0.156,0.891,0.208c0.481,1.79,1.29,3.263,2.379,4.386c0.227,0.234,0.184,0.73-0.121,1.21l-0.89,1.404
							c-0.412,0.649-0.412,1.316,0,1.49l5.375,3.102l1.529-3.102c0,0,0.285-0.941,0.231-1.482c0.02-0.001,0.041-0.011,0.06-0.01
							c1.751,0.077,3.691-0.234,5.758-0.948c0.419-0.145,0.722,0.044,0.722,0.474v1.27c0,0.582,0.472,0.781,1.053,0.445l5.195-2.999
							c0.582-0.336,1.053-1.08,1.053-1.662v-1.27c0-0.43,0.303-0.968,0.722-1.308c2.067-1.674,4.008-3.603,5.759-5.701
							c0.366-0.438,0.836-0.667,1.14-0.538l0.891,0.377c0.411,0.174,1.078-0.211,1.49-0.86l3.673-5.794
							c0.411-0.649,0.411-1.316,0-1.49l-0.89-0.376c-0.304-0.129-0.347-0.574-0.12-1.071c1.088-2.379,1.898-4.788,2.379-7.133
							c0.098-0.476,0.461-0.988,0.891-1.236l1.266-0.731c0.582-0.336,1.053-1.08,1.053-1.662v-5.195
							C233.982,157.677,233.51,157.478,232.928,157.814z M223.161,168.427c-0.589,5.452-4.735,11.965-9.852,15.467
							c-6.72,4.599-12.392,2.624-12.392-3.95c0-6.158,4.993-14.043,11.16-17.604C218.682,158.527,223.939,161.229,223.161,168.427z"
							/>
					</g>
					<g>
						<path style="fill:#BA68C8;" d="M232.931,157.816l-1.267,0.732c-0.43,0.244-0.79,0.151-0.895-0.209
							c-0.477-1.79-1.29-3.266-2.371-4.393c-0.233-0.233-0.186-0.732,0.116-1.209l0.883-1.395c0.418-0.651,0.418-1.325,0-1.499
							l-3.672-1.546c-0.407-0.174-1.081,0.209-1.488,0.86l-0.883,1.395c-0.302,0.488-0.779,0.802-1.139,0.779
							c-1.185-0.046-2.452,0.07-3.789,0.384c-0.639,0.139-1.302,0.337-1.976,0.569c-0.418,0.14-0.72-0.046-0.72-0.476v-1.267
							c0-0.291-0.116-0.488-0.314-0.569c-0.186-0.07-0.453-0.035-0.744,0.128l-5.195,2.998c-0.581,0.337-1.057,1.081-1.057,1.662
							v1.267c0,0.43-0.302,0.965-0.721,1.302c-2.069,1.674-4.009,3.614-5.764,5.706c-0.36,0.442-0.837,0.674-1.139,0.546
							l-0.883-0.384c-0.418-0.174-1.081,0.209-1.488,0.86l-3.672,5.799c-0.418,0.651-0.418,1.313,0,1.488l1.104,0.639
							c0.07,0.209,0.046,0.488-0.105,0.814c-1.081,2.371-1.894,4.788-2.371,7.124c-0.105,0.476-0.465,0.988-0.895,1.244
							l-1.267,0.732c-0.581,0.337-1.058,1.081-1.058,1.662v5.195c0,0.581,0.477,0.779,1.058,0.442l1.267-0.732
							c0.43-0.244,0.79-0.151,0.895,0.209c0.476,1.79,1.29,3.266,2.382,4.381c0.221,0.244,0.174,0.732-0.128,1.209l-0.883,1.406
							c-0.418,0.651-0.418,1.325,0,1.499l5.369,3.091l1.534-3.091c0,0,0.279-0.941,0.221-1.488c0.023,0,0.046-0.012,0.07-0.012
							c1.743,0.081,3.684-0.232,5.753-0.941c0.418-0.151,0.721,0.035,0.721,0.465v1.278c0,0.581,0.476,0.779,1.057,0.442
							l5.195-2.998c0.581-0.337,1.058-1.081,1.058-1.662v-1.267c0-0.43,0.302-0.976,0.72-1.313c2.069-1.673,4.009-3.603,5.753-5.706
							c0.372-0.43,0.837-0.662,1.139-0.535l0.895,0.384c0.407,0.174,1.081-0.221,1.488-0.86l3.672-5.799
							c0.418-0.651,0.418-1.313,0-1.488l-0.883-0.383c-0.302-0.128-0.349-0.569-0.128-1.069c1.093-2.371,1.906-4.788,2.382-7.135
							c0.105-0.465,0.465-0.988,0.895-1.232l1.267-0.732c0.581-0.337,1.046-1.081,1.046-1.662v-5.195
							C233.977,157.677,233.512,157.479,232.931,157.816z M223.158,168.426c-0.581,5.45-4.73,11.97-9.855,15.468
							c-6.717,4.602-12.388,2.626-12.388-3.951c0-6.159,4.997-14.039,11.168-17.606
							C218.684,158.525,223.936,161.233,223.158,168.426z"/>
					</g>
					<g>
						<path style="fill:#BA68C8;" d="M238.938,160.767l-5.246-3.063l-0.147,3.063c0,0,2.488,2.249,2.769,2.297
							c0.281,0.049,1.322,0,1.322,0L238.938,160.767z"/>
					</g>
					<g>
						<polygon style="fill:#BA68C8;" points="208.674,196.994 214.037,200.088 214.273,197.178 211.474,196.79 						"/>
					</g>
					<g style="opacity:0.2;">
						<path d="M232.928,157.814l-1.265,0.73c-0.431,0.249-0.794,0.156-0.891-0.207c-0.48-1.79-1.29-3.264-2.379-4.388
							c-0.227-0.234-0.184-0.73,0.12-1.21l0.889-1.401c0.411-0.649,0.411-1.316,0-1.49l-3.673-1.553
							c-0.412-0.174-1.079,0.211-1.49,0.86l-0.887,1.4c-0.304,0.48-0.775,0.795-1.141,0.779c-1.752-0.078-3.693,0.233-5.762,0.947
							c-0.419,0.145-0.722-0.044-0.722-0.474v-1.262c0-0.582-0.472-0.781-1.053-0.445l-5.195,2.999
							c-0.582,0.336-1.053,1.08-1.053,1.662v1.262c0,0.43-0.303,0.968-0.722,1.308c-2.068,1.675-4.01,3.606-5.761,5.707
							c-0.366,0.438-0.836,0.667-1.141,0.539l-0.888-0.375c-0.411-0.174-1.079,0.211-1.49,0.86l-3.673,5.794
							c-0.411,0.649-0.411,1.316,0,1.49l1.105,0.638c0.073,0.206,0.05,0.492-0.095,0.81c-1.088,2.38-1.898,4.788-2.378,7.132
							c-0.097,0.476-0.461,0.988-0.891,1.237l-1.267,0.731c-0.582,0.336-1.054,1.08-1.054,1.662v5.195
							c0,0.582,0.472,0.781,1.054,0.445l1.267-0.732c0.431-0.249,0.794-0.156,0.891,0.208c0.481,1.79,1.29,3.263,2.379,4.386
							c0.227,0.234,0.184,0.73-0.121,1.21l-0.89,1.404c-0.412,0.649-0.412,1.316,0,1.49l5.375,3.102l1.529-3.102
							c0,0,0.285-0.941,0.231-1.482c0.02-0.001,0.041-0.011,0.06-0.01c1.751,0.077,3.691-0.234,5.758-0.948
							c0.419-0.145,0.722,0.044,0.722,0.474v1.27c0,0.582,0.472,0.781,1.053,0.445l5.195-2.999c0.582-0.336,1.053-1.08,1.053-1.662
							v-1.27c0-0.43,0.303-0.968,0.722-1.308c2.067-1.674,4.008-3.603,5.759-5.701c0.366-0.438,0.836-0.667,1.14-0.538l0.891,0.377
							c0.411,0.174,1.078-0.211,1.49-0.86l3.673-5.794c0.411-0.649,0.411-1.316,0-1.49l-0.89-0.376
							c-0.304-0.129-0.347-0.574-0.12-1.071c1.088-2.379,1.898-4.788,2.379-7.133c0.098-0.476,0.461-0.988,0.891-1.236l1.266-0.731
							c0.582-0.336,1.053-1.08,1.053-1.662v-5.195C233.982,157.677,233.51,157.478,232.928,157.814z M223.161,168.427
							c-0.589,5.452-4.735,11.965-9.852,15.467c-6.72,4.599-12.392,2.624-12.392-3.95c0-6.158,4.993-14.043,11.16-17.604
							C218.682,158.527,223.939,161.229,223.161,168.427z"/>
					</g>
					<g style="opacity:0.2;">
						<path d="M232.931,157.816l-1.267,0.732c-0.43,0.244-0.79,0.151-0.895-0.209c-0.477-1.79-1.29-3.266-2.371-4.393
							c-0.233-0.233-0.186-0.732,0.116-1.209l0.883-1.395c0.418-0.651,0.418-1.325,0-1.499l-3.672-1.546
							c-0.407-0.174-1.081,0.209-1.488,0.86l-0.883,1.395c-0.302,0.488-0.779,0.802-1.139,0.779
							c-1.185-0.046-2.452,0.07-3.789,0.384c-0.639,0.139-1.302,0.337-1.976,0.569c-0.418,0.14-0.72-0.046-0.72-0.476v-1.267
							c0-0.291-0.116-0.488-0.314-0.569c-0.186-0.07-0.453-0.035-0.744,0.128l-5.195,2.998c-0.581,0.337-1.057,1.081-1.057,1.662
							v1.267c0,0.43-0.302,0.965-0.721,1.302c-2.069,1.674-4.009,3.614-5.764,5.706c-0.36,0.442-0.837,0.674-1.139,0.546
							l-0.883-0.384c-0.418-0.174-1.081,0.209-1.488,0.86l-3.672,5.799c-0.418,0.651-0.418,1.313,0,1.488l1.104,0.639
							c0.07,0.209,0.046,0.488-0.105,0.814c-1.081,2.371-1.894,4.788-2.371,7.124c-0.105,0.476-0.465,0.988-0.895,1.244
							l-1.267,0.732c-0.581,0.337-1.058,1.081-1.058,1.662v5.195c0,0.581,0.477,0.779,1.058,0.442l1.267-0.732
							c0.43-0.244,0.79-0.151,0.895,0.209c0.476,1.79,1.29,3.266,2.382,4.381c0.221,0.244,0.174,0.732-0.128,1.209l-0.883,1.406
							c-0.418,0.651-0.418,1.325,0,1.499l5.369,3.091l1.534-3.091c0,0,0.279-0.941,0.221-1.488c0.023,0,0.046-0.012,0.07-0.012
							c1.743,0.081,3.684-0.232,5.753-0.941c0.418-0.151,0.721,0.035,0.721,0.465v1.278c0,0.581,0.476,0.779,1.057,0.442
							l5.195-2.998c0.581-0.337,1.058-1.081,1.058-1.662v-1.267c0-0.43,0.302-0.976,0.72-1.313c2.069-1.673,4.009-3.603,5.753-5.706
							c0.372-0.43,0.837-0.662,1.139-0.535l0.895,0.384c0.407,0.174,1.081-0.221,1.488-0.86l3.672-5.799
							c0.418-0.651,0.418-1.313,0-1.488l-0.883-0.383c-0.302-0.128-0.349-0.569-0.128-1.069c1.093-2.371,1.906-4.788,2.382-7.135
							c0.105-0.465,0.465-0.988,0.895-1.232l1.267-0.732c0.581-0.337,1.046-1.081,1.046-1.662v-5.195
							C233.977,157.677,233.512,157.479,232.931,157.816z M223.158,168.426c-0.581,5.45-4.73,11.97-9.855,15.468
							c-6.717,4.602-12.388,2.626-12.388-3.951c0-6.159,4.997-14.039,11.168-17.606
							C218.684,158.525,223.936,161.233,223.158,168.426z"/>
					</g>
					<g style="opacity:0.2;">
						<polygon points="208.674,196.994 214.037,200.088 214.273,197.178 211.474,196.79 						"/>
					</g>
					<g>
						<path style="fill:#BA68C8;" d="M196.599,192.297l1.268-0.732c0.43-0.249,0.794-0.156,0.891,0.207
							c0.481,1.79,1.29,3.263,2.378,4.386c0.227,0.234,0.184,0.73-0.12,1.21l-0.89,1.404c-0.412,0.649-0.412,1.316,0,1.49
							l3.673,1.553c0.412,0.174,1.079-0.211,1.49-0.86l0.891-1.406c0.304-0.48,0.775-0.795,1.14-0.779
							c1.751,0.077,3.691-0.235,5.758-0.948c0.419-0.145,0.722,0.044,0.722,0.474v1.27c0,0.582,0.472,0.781,1.053,0.445l5.195-2.999
							c0.582-0.336,1.054-1.08,1.054-1.662v-1.27c0-0.431,0.303-0.968,0.722-1.308c2.067-1.674,4.008-3.603,5.759-5.701
							c0.366-0.438,0.836-0.667,1.14-0.538l0.891,0.377c0.412,0.174,1.079-0.211,1.49-0.86l3.673-5.794
							c0.411-0.649,0.411-1.316,0-1.49l-0.89-0.376c-0.304-0.129-0.347-0.574-0.12-1.071c1.088-2.379,1.898-4.788,2.379-7.133
							c0.097-0.476,0.461-0.988,0.891-1.236l1.266-0.731c0.582-0.336,1.053-1.08,1.053-1.662v-5.195
							c0-0.582-0.472-0.781-1.053-0.445l-1.265,0.73c-0.43,0.249-0.794,0.156-0.891-0.208c-0.48-1.79-1.29-3.264-2.379-4.388
							c-0.227-0.235-0.184-0.73,0.12-1.21l0.888-1.401c0.411-0.649,0.411-1.316,0-1.49l-3.673-1.553
							c-0.412-0.174-1.079,0.211-1.49,0.86l-0.887,1.4c-0.304,0.48-0.775,0.795-1.141,0.779c-1.752-0.078-3.693,0.233-5.762,0.947
							c-0.419,0.145-0.722-0.044-0.722-0.474v-1.262c0-0.582-0.472-0.781-1.054-0.445l-5.195,2.999
							c-0.582,0.336-1.053,1.08-1.053,1.662v1.262c0,0.43-0.303,0.968-0.722,1.308c-2.068,1.675-4.01,3.606-5.761,5.707
							c-0.366,0.439-0.836,0.667-1.141,0.539l-0.888-0.375c-0.411-0.174-1.078,0.212-1.49,0.86l-3.673,5.794
							c-0.411,0.649-0.411,1.316,0,1.49l0.89,0.376c0.304,0.129,0.347,0.574,0.12,1.071c-1.088,2.38-1.898,4.788-2.378,7.132
							c-0.097,0.476-0.461,0.988-0.891,1.237l-1.267,0.731c-0.582,0.336-1.053,1.08-1.053,1.662v5.195
							C195.545,192.433,196.017,192.633,196.599,192.297z M206.292,183.046c0-6.158,4.993-14.043,11.16-17.604
							c6.605-3.813,11.862-1.112,11.084,6.087c-0.59,5.452-4.735,11.965-9.852,15.467
							C211.963,191.595,206.292,189.62,206.292,183.046z"/>
					</g>
					<g>
						<path style="fill:#BA68C8;" d="M195.546,191.855c0,0.244,0.081,0.418,0.233,0.511l-1.034-0.593l-4.242-2.452l-0.07-0.035
							c0,0-0.058-0.047-0.139-0.116c-0.082-0.105-0.128-0.244-0.128-0.418v-5.195c0-0.383,0.209-0.848,0.523-1.209l5.392,3.091
							c-0.314,0.36-0.535,0.825-0.535,1.22V191.855z"/>
					</g>
					<g>
						<path style="fill:#BA68C8;" d="M220.775,153.075c-0.186-0.07-0.442-0.035-0.732,0.128l-5.195,2.998
							c-0.279,0.163-0.535,0.418-0.721,0.709l-5.357-3.126c0.186-0.279,0.442-0.523,0.709-0.686l5.195-2.998
							c0.291-0.163,0.558-0.198,0.744-0.128l0.128,0.081l2.882,1.662L220.775,153.075z"/>
					</g>
					<g>
						<path style="fill:#BA68C8;" d="M207.318,166.137c-0.023,0.035-0.058,0.058-0.081,0.093c-0.36,0.384-0.778,0.569-1.058,0.453
							l-0.895-0.384l-5.369-3.103l0.883,0.384c0.302,0.128,0.779-0.105,1.139-0.546L207.318,166.137z"/>
					</g>
					<g>
						<path style="fill:#BA68C8;" d="M231.107,151.401c-0.418-0.174-1.081,0.209-1.488,0.86l-0.895,1.395
							c-0.081,0.128-0.174,0.244-0.279,0.349c-0.256,0.267-0.558,0.43-0.825,0.43h-0.035l-5.369-3.103
							c0.36,0.023,0.837-0.29,1.139-0.779l0.883-1.395c0.407-0.651,1.081-1.034,1.488-0.86L231.107,151.401z"/>
					</g>
					<g>
						<polygon style="fill:#BA68C8;" points="229.464,149.877 234.777,152.95 231.107,151.401 225.726,148.298 						"/>
					</g>
				</g>
				<g>
					<g>
						<path style="fill:#BA68C8;" d="M260.813,179.756l-0.925,0.534c-0.315,0.182-0.581,0.114-0.652-0.152
							c-0.351-1.31-0.944-2.388-1.74-3.209c-0.166-0.171-0.135-0.534,0.088-0.885l0.65-1.025c0.301-0.475,0.301-0.962,0-1.09
							l-2.687-1.136c-0.301-0.127-0.789,0.155-1.09,0.629l-0.649,1.024c-0.223,0.351-0.567,0.581-0.834,0.569
							c-1.281-0.057-2.701,0.17-4.214,0.692c-0.307,0.106-0.528-0.032-0.528-0.347v-0.923c0-0.425-0.345-0.571-0.771-0.326
							l-3.8,2.194c-0.426,0.246-0.771,0.79-0.771,1.215v0.923c0,0.315-0.222,0.708-0.528,0.957
							c-1.513,1.225-2.933,2.638-4.214,4.174c-0.268,0.321-0.612,0.488-0.834,0.394l-0.65-0.274
							c-0.301-0.127-0.789,0.155-1.09,0.629l-2.687,4.238c-0.301,0.475-0.301,0.963,0,1.09l0.808,0.466
							c0.053,0.151,0.037,0.36-0.069,0.592c-0.796,1.741-1.388,3.502-1.739,5.217c-0.071,0.348-0.337,0.723-0.652,0.905
							l-0.926,0.535c-0.426,0.246-0.771,0.79-0.771,1.215v3.8c0,0.426,0.345,0.571,0.771,0.326l0.927-0.535
							c0.315-0.182,0.58-0.114,0.652,0.152c0.351,1.309,0.943,2.387,1.739,3.208c0.166,0.171,0.135,0.534-0.088,0.885l-0.651,1.027
							c-0.301,0.475-0.301,0.963,0,1.09l3.931,2.269l1.118-2.269c0,0,0.209-0.688,0.169-1.084c0.014-0.001,0.03-0.008,0.044-0.007
							c1.281,0.056,2.7-0.171,4.212-0.693c0.307-0.106,0.528,0.032,0.528,0.347v0.929c0,0.426,0.345,0.571,0.771,0.326l3.8-2.194
							c0.425-0.246,0.771-0.79,0.771-1.215v-0.929c0-0.315,0.221-0.708,0.528-0.957c1.512-1.224,2.931-2.635,4.212-4.17
							c0.268-0.321,0.611-0.488,0.834-0.394l0.652,0.275c0.301,0.127,0.789-0.154,1.09-0.629l2.687-4.238
							c0.301-0.475,0.301-0.963,0-1.09l-0.651-0.275c-0.223-0.094-0.254-0.42-0.088-0.783c0.796-1.74,1.388-3.502,1.74-5.217
							c0.071-0.348,0.337-0.723,0.652-0.904l0.926-0.534c0.426-0.246,0.771-0.79,0.771-1.215v-3.8
							C261.584,179.656,261.239,179.51,260.813,179.756z M253.669,187.518c-0.431,3.988-3.464,8.751-7.206,11.313
							c-4.915,3.364-9.064,1.919-9.064-2.889c0-4.504,3.652-10.272,8.163-12.876C250.393,180.277,254.238,182.253,253.669,187.518z"
							/>
					</g>
					<g>
						<path style="fill:#BA68C8;" d="M260.815,179.757l-0.926,0.536c-0.315,0.179-0.578,0.111-0.655-0.153
							c-0.348-1.309-0.943-2.388-1.734-3.213c-0.17-0.17-0.136-0.536,0.085-0.884l0.646-1.02c0.306-0.476,0.306-0.969,0-1.097
							l-2.686-1.13c-0.297-0.128-0.79,0.153-1.088,0.629l-0.646,1.02c-0.221,0.357-0.569,0.586-0.833,0.569
							c-0.867-0.034-1.794,0.051-2.771,0.28c-0.467,0.102-0.952,0.247-1.445,0.417c-0.306,0.102-0.527-0.034-0.527-0.348v-0.927
							c0-0.212-0.085-0.357-0.229-0.417c-0.136-0.051-0.331-0.025-0.544,0.094l-3.799,2.193c-0.425,0.247-0.774,0.791-0.774,1.215
							v0.926c0,0.315-0.221,0.705-0.527,0.952c-1.513,1.224-2.933,2.644-4.216,4.174c-0.263,0.323-0.612,0.493-0.833,0.4
							l-0.646-0.28c-0.306-0.127-0.79,0.153-1.088,0.629l-2.686,4.242c-0.306,0.476-0.306,0.961,0,1.088l0.808,0.468
							c0.051,0.153,0.034,0.357-0.077,0.595c-0.79,1.734-1.386,3.502-1.734,5.211c-0.077,0.349-0.34,0.723-0.654,0.91l-0.927,0.536
							c-0.425,0.247-0.773,0.79-0.773,1.215v3.8c0,0.425,0.348,0.57,0.773,0.323l0.927-0.536c0.315-0.178,0.578-0.11,0.654,0.153
							c0.348,1.309,0.944,2.388,1.743,3.204c0.162,0.179,0.127,0.536-0.094,0.884l-0.646,1.028c-0.306,0.476-0.306,0.969,0,1.097
							l3.927,2.261l1.122-2.261c0,0,0.204-0.689,0.161-1.088c0.017,0,0.034-0.009,0.051-0.009c1.275,0.059,2.694-0.17,4.207-0.688
							c0.306-0.111,0.527,0.026,0.527,0.34v0.935c0,0.425,0.349,0.569,0.774,0.323l3.799-2.193c0.425-0.247,0.773-0.79,0.773-1.215
							v-0.927c0-0.315,0.221-0.714,0.527-0.961c1.513-1.224,2.933-2.635,4.208-4.173c0.272-0.315,0.612-0.485,0.833-0.391
							l0.655,0.281c0.298,0.127,0.791-0.162,1.088-0.629l2.686-4.242c0.306-0.476,0.306-0.96,0-1.088l-0.646-0.28
							c-0.221-0.093-0.255-0.416-0.094-0.782c0.799-1.734,1.394-3.502,1.742-5.219c0.077-0.34,0.34-0.723,0.655-0.901l0.926-0.536
							c0.425-0.246,0.765-0.791,0.765-1.216v-3.799C261.581,179.655,261.24,179.511,260.815,179.757z M253.667,187.518
							c-0.425,3.987-3.46,8.755-7.208,11.314c-4.913,3.366-9.061,1.921-9.061-2.89c0-4.505,3.655-10.268,8.169-12.878
							C250.394,180.276,254.236,182.256,253.667,187.518z"/>
					</g>
					<g>
						<path style="fill:#BA68C8;" d="M265.209,181.916l-3.837-2.241l-0.107,2.241c0,0,1.82,1.645,2.026,1.68
							c0.206,0.035,0.967,0,0.967,0L265.209,181.916z"/>
					</g>
					<g>
						<polygon style="fill:#BA68C8;" points="243.073,208.413 246.996,210.676 247.169,208.547 245.121,208.264 						"/>
					</g>
					<g style="opacity:0.2;">
						<path d="M260.813,179.756l-0.925,0.534c-0.315,0.182-0.581,0.114-0.652-0.152c-0.351-1.31-0.944-2.388-1.74-3.209
							c-0.166-0.171-0.135-0.534,0.088-0.885l0.65-1.025c0.301-0.475,0.301-0.962,0-1.09l-2.687-1.136
							c-0.301-0.127-0.789,0.155-1.09,0.629l-0.649,1.024c-0.223,0.351-0.567,0.581-0.834,0.569
							c-1.281-0.057-2.701,0.17-4.214,0.692c-0.307,0.106-0.528-0.032-0.528-0.347v-0.923c0-0.425-0.345-0.571-0.771-0.326
							l-3.8,2.194c-0.426,0.246-0.771,0.79-0.771,1.215v0.923c0,0.315-0.222,0.708-0.528,0.957
							c-1.513,1.225-2.933,2.638-4.214,4.174c-0.268,0.321-0.612,0.488-0.834,0.394l-0.65-0.274
							c-0.301-0.127-0.789,0.155-1.09,0.629l-2.687,4.238c-0.301,0.475-0.301,0.963,0,1.09l0.808,0.466
							c0.053,0.151,0.037,0.36-0.069,0.592c-0.796,1.741-1.388,3.502-1.739,5.217c-0.071,0.348-0.337,0.723-0.652,0.905
							l-0.926,0.535c-0.426,0.246-0.771,0.79-0.771,1.215v3.8c0,0.426,0.345,0.571,0.771,0.326l0.927-0.535
							c0.315-0.182,0.58-0.114,0.652,0.152c0.351,1.309,0.943,2.387,1.739,3.208c0.166,0.171,0.135,0.534-0.088,0.885l-0.651,1.027
							c-0.301,0.475-0.301,0.963,0,1.09l3.931,2.269l1.118-2.269c0,0,0.209-0.688,0.169-1.084c0.014-0.001,0.03-0.008,0.044-0.007
							c1.281,0.056,2.7-0.171,4.212-0.693c0.307-0.106,0.528,0.032,0.528,0.347v0.929c0,0.426,0.345,0.571,0.771,0.326l3.8-2.194
							c0.425-0.246,0.771-0.79,0.771-1.215v-0.929c0-0.315,0.221-0.708,0.528-0.957c1.512-1.224,2.931-2.635,4.212-4.17
							c0.268-0.321,0.611-0.488,0.834-0.394l0.652,0.275c0.301,0.127,0.789-0.154,1.09-0.629l2.687-4.238
							c0.301-0.475,0.301-0.963,0-1.09l-0.651-0.275c-0.223-0.094-0.254-0.42-0.088-0.783c0.796-1.74,1.388-3.502,1.74-5.217
							c0.071-0.348,0.337-0.723,0.652-0.904l0.926-0.534c0.426-0.246,0.771-0.79,0.771-1.215v-3.8
							C261.584,179.656,261.239,179.51,260.813,179.756z M253.669,187.518c-0.431,3.988-3.464,8.751-7.206,11.313
							c-4.915,3.364-9.064,1.919-9.064-2.889c0-4.504,3.652-10.272,8.163-12.876C250.393,180.277,254.238,182.253,253.669,187.518z"
							/>
					</g>
					<g style="opacity:0.2;">
						<path d="M260.815,179.757l-0.926,0.536c-0.315,0.179-0.578,0.111-0.655-0.153c-0.348-1.309-0.943-2.388-1.734-3.213
							c-0.17-0.17-0.136-0.536,0.085-0.884l0.646-1.02c0.306-0.476,0.306-0.969,0-1.097l-2.686-1.13
							c-0.297-0.128-0.79,0.153-1.088,0.629l-0.646,1.02c-0.221,0.357-0.569,0.586-0.833,0.569c-0.867-0.034-1.794,0.051-2.771,0.28
							c-0.467,0.102-0.952,0.247-1.445,0.417c-0.306,0.102-0.527-0.034-0.527-0.348v-0.927c0-0.212-0.085-0.357-0.229-0.417
							c-0.136-0.051-0.331-0.025-0.544,0.094l-3.799,2.193c-0.425,0.247-0.774,0.791-0.774,1.215v0.926
							c0,0.315-0.221,0.705-0.527,0.952c-1.513,1.224-2.933,2.644-4.216,4.174c-0.263,0.323-0.612,0.493-0.833,0.4l-0.646-0.28
							c-0.306-0.127-0.79,0.153-1.088,0.629l-2.686,4.242c-0.306,0.476-0.306,0.961,0,1.088l0.808,0.468
							c0.051,0.153,0.034,0.357-0.077,0.595c-0.79,1.734-1.386,3.502-1.734,5.211c-0.077,0.349-0.34,0.723-0.654,0.91l-0.927,0.536
							c-0.425,0.247-0.773,0.79-0.773,1.215v3.8c0,0.425,0.348,0.57,0.773,0.323l0.927-0.536c0.315-0.178,0.578-0.11,0.654,0.153
							c0.348,1.309,0.944,2.388,1.743,3.204c0.162,0.179,0.127,0.536-0.094,0.884l-0.646,1.028c-0.306,0.476-0.306,0.969,0,1.097
							l3.927,2.261l1.122-2.261c0,0,0.204-0.689,0.161-1.088c0.017,0,0.034-0.009,0.051-0.009c1.275,0.059,2.694-0.17,4.207-0.688
							c0.306-0.111,0.527,0.026,0.527,0.34v0.935c0,0.425,0.349,0.569,0.774,0.323l3.799-2.193c0.425-0.247,0.773-0.79,0.773-1.215
							v-0.927c0-0.315,0.221-0.714,0.527-0.961c1.513-1.224,2.933-2.635,4.208-4.173c0.272-0.315,0.612-0.485,0.833-0.391
							l0.655,0.281c0.298,0.127,0.791-0.162,1.088-0.629l2.686-4.242c0.306-0.476,0.306-0.96,0-1.088l-0.646-0.28
							c-0.221-0.093-0.255-0.416-0.094-0.782c0.799-1.734,1.394-3.502,1.742-5.219c0.077-0.34,0.34-0.723,0.655-0.901l0.926-0.536
							c0.425-0.246,0.765-0.791,0.765-1.216v-3.799C261.581,179.655,261.24,179.511,260.815,179.757z M253.667,187.518
							c-0.425,3.987-3.46,8.755-7.208,11.314c-4.913,3.366-9.061,1.921-9.061-2.89c0-4.505,3.655-10.268,8.169-12.878
							C250.394,180.276,254.236,182.256,253.667,187.518z"/>
					</g>
					<g style="opacity:0.2;">
						<polygon points="243.073,208.413 246.996,210.676 247.169,208.547 245.121,208.264 						"/>
					</g>
					<g>
						<path style="fill:#BA68C8;" d="M234.241,204.977l0.927-0.535c0.315-0.182,0.581-0.114,0.652,0.152
							c0.351,1.309,0.943,2.387,1.739,3.208c0.166,0.171,0.135,0.534-0.088,0.885l-0.651,1.027c-0.301,0.475-0.301,0.963,0,1.09
							l2.687,1.136c0.301,0.127,0.789-0.154,1.09-0.629l0.652-1.028c0.223-0.351,0.567-0.581,0.834-0.569
							c1.281,0.056,2.7-0.172,4.212-0.693c0.307-0.106,0.528,0.032,0.528,0.347v0.929c0,0.425,0.345,0.571,0.77,0.326l3.8-2.194
							c0.425-0.246,0.77-0.79,0.77-1.215v-0.929c0-0.315,0.221-0.708,0.528-0.957c1.512-1.224,2.932-2.635,4.212-4.17
							c0.268-0.321,0.611-0.488,0.834-0.394l0.651,0.275c0.301,0.127,0.789-0.154,1.09-0.629l2.687-4.238
							c0.301-0.475,0.301-0.962,0-1.09l-0.651-0.275c-0.223-0.094-0.254-0.42-0.088-0.784c0.796-1.74,1.388-3.502,1.74-5.217
							c0.071-0.348,0.337-0.722,0.652-0.904l0.926-0.534c0.426-0.246,0.771-0.79,0.771-1.215v-3.8c0-0.425-0.345-0.571-0.771-0.326
							l-0.925,0.534c-0.315,0.182-0.58,0.114-0.652-0.152c-0.351-1.309-0.944-2.388-1.74-3.209
							c-0.166-0.172-0.135-0.534,0.088-0.885l0.65-1.025c0.301-0.475,0.301-0.962,0-1.09l-2.687-1.136
							c-0.301-0.127-0.789,0.155-1.09,0.629l-0.649,1.024c-0.223,0.351-0.567,0.581-0.834,0.569
							c-1.281-0.057-2.701,0.17-4.214,0.692c-0.307,0.106-0.528-0.032-0.528-0.347v-0.923c0-0.426-0.345-0.572-0.77-0.326
							l-3.8,2.194c-0.426,0.246-0.77,0.79-0.77,1.215v0.923c0,0.315-0.221,0.708-0.528,0.956c-1.513,1.225-2.933,2.638-4.214,4.174
							c-0.267,0.321-0.612,0.488-0.834,0.394l-0.65-0.275c-0.301-0.127-0.789,0.155-1.09,0.629l-2.687,4.238
							c-0.301,0.475-0.301,0.962,0,1.09l0.651,0.275c0.223,0.094,0.254,0.42,0.088,0.784c-0.796,1.741-1.388,3.502-1.739,5.217
							c-0.071,0.348-0.337,0.723-0.652,0.904l-0.926,0.535c-0.426,0.246-0.77,0.79-0.77,1.215v3.8
							C233.47,205.077,233.815,205.223,234.241,204.977z M241.33,198.211c0-4.504,3.652-10.272,8.163-12.876
							c4.831-2.789,8.676-0.813,8.107,4.452c-0.431,3.988-3.464,8.751-7.206,11.313C245.479,204.464,241.33,203.019,241.33,198.211z
							"/>
					</g>
					<g>
						<path style="fill:#BA68C8;" d="M233.471,204.654c0,0.179,0.059,0.306,0.17,0.374l-0.757-0.433l-3.103-1.793l-0.051-0.026
							c0,0-0.043-0.034-0.102-0.085c-0.059-0.076-0.093-0.178-0.093-0.306v-3.8c0-0.28,0.153-0.62,0.382-0.884l3.944,2.261
							c-0.229,0.263-0.391,0.604-0.391,0.893V204.654z"/>
					</g>
					<g>
						<path style="fill:#BA68C8;" d="M251.924,176.289c-0.136-0.051-0.323-0.025-0.536,0.094l-3.8,2.193
							c-0.204,0.119-0.391,0.306-0.527,0.518l-3.919-2.287c0.136-0.204,0.323-0.383,0.519-0.501l3.799-2.193
							c0.213-0.119,0.408-0.144,0.544-0.094l0.094,0.059l2.108,1.216L251.924,176.289z"/>
					</g>
					<g>
						<path style="fill:#BA68C8;" d="M242.081,185.843c-0.017,0.026-0.042,0.042-0.059,0.068c-0.263,0.281-0.569,0.417-0.773,0.332
							l-0.655-0.281l-3.927-2.27l0.646,0.28c0.221,0.094,0.569-0.076,0.833-0.4L242.081,185.843z"/>
					</g>
					<g>
						<path style="fill:#BA68C8;" d="M259.481,175.065c-0.306-0.128-0.79,0.153-1.088,0.629l-0.654,1.02
							c-0.06,0.094-0.127,0.179-0.204,0.255c-0.187,0.195-0.408,0.315-0.603,0.315h-0.026l-3.927-2.27
							c0.263,0.017,0.612-0.213,0.833-0.569l0.646-1.02c0.298-0.476,0.791-0.757,1.088-0.629L259.481,175.065z"/>
					</g>
					<g>
						<polygon style="fill:#BA68C8;" points="258.279,173.95 262.166,176.198 259.481,175.065 255.545,172.796 						"/>
					</g>
				</g>
				<g>
					<path style="fill:#BA68C8;" d="M207.723,233.142c-0.093,0-0.184-0.017-0.269-0.053l-2.172-0.918
						c-0.176-0.074-0.304-0.219-0.363-0.409c-0.09-0.287-0.017-0.648,0.201-0.99l0.527-0.83c0.097-0.153,0.108-0.272,0.098-0.303
						c-0.661-0.675-1.155-1.572-1.454-2.643c-0.008,0.004-0.017,0.009-0.027,0.014l-0.749,0.433
						c-0.293,0.169-0.593,0.192-0.827,0.057c-0.209-0.121-0.329-0.35-0.329-0.628V223.8c0-0.472,0.344-1.027,0.8-1.291l0.748-0.432
						c0.162-0.093,0.318-0.31,0.356-0.493c0.288-1.401,0.769-2.845,1.431-4.293c0.038-0.083,0.05-0.146,0.052-0.184l-0.464-0.195
						c-0.174-0.073-0.304-0.219-0.363-0.409c-0.09-0.287-0.017-0.648,0.201-0.99l2.172-3.425c0.348-0.55,0.898-0.821,1.32-0.646
						l0.524,0.222c0.01-0.008,0.133-0.062,0.263-0.219c1.063-1.274,2.225-2.425,3.454-3.422c0.183-0.148,0.295-0.372,0.295-0.496
						v-0.746c0-0.472,0.344-1.027,0.8-1.291l3.072-1.773c0.294-0.169,0.593-0.189,0.827-0.057c0.21,0.121,0.329,0.35,0.329,0.628
						v0.67c1.259-0.421,2.413-0.606,3.492-0.559c0.057,0.008,0.222-0.08,0.357-0.295l0.527-0.828
						c0.341-0.54,0.911-0.819,1.319-0.646l2.172,0.919c0.173,0.073,0.303,0.218,0.362,0.407c0.09,0.287,0.017,0.648-0.201,0.991
						l-0.524,0.828c-0.097,0.153-0.108,0.272-0.098,0.303c0.661,0.676,1.155,1.573,1.454,2.644c0.009-0.004,0.017-0.009,0.027-0.014
						l0.748-0.432c0.294-0.171,0.593-0.191,0.827-0.057c0.209,0.121,0.329,0.35,0.329,0.628v3.071c0,0.472-0.344,1.027-0.8,1.291
						l-0.748,0.432c-0.162,0.094-0.318,0.311-0.356,0.493c-0.288,1.404-0.77,2.848-1.432,4.295
						c-0.056,0.124-0.056,0.201-0.051,0.219l0.463,0.16c0.176,0.074,0.304,0.219,0.363,0.409c0.09,0.287,0.017,0.648-0.201,0.99
						l-2.171,3.425c-0.343,0.542-0.909,0.822-1.32,0.645l-0.525-0.222c-0.01,0.008-0.133,0.062-0.264,0.218
						c-1.064,1.276-2.227,2.426-3.453,3.419c-0.182,0.147-0.294,0.372-0.294,0.496v0.751c0,0.472-0.344,1.027-0.8,1.29l-3.072,1.773
						c-0.293,0.17-0.592,0.191-0.827,0.057c-0.21-0.121-0.329-0.35-0.329-0.628v-0.675c-1.258,0.421-2.414,0.611-3.491,0.56h-0.001
						c-0.051,0-0.222,0.083-0.357,0.296l-0.527,0.831C208.496,232.881,208.088,233.142,207.723,233.142z M204.352,226.263
						c0.085,0,0.167,0.016,0.245,0.047c0.178,0.074,0.306,0.223,0.36,0.421c0.264,0.988,0.707,1.808,1.317,2.437
						c0.256,0.263,0.245,0.727-0.027,1.154l-0.527,0.83c-0.132,0.208-0.136,0.365-0.122,0.398l2.132,0.881
						c0.068-0.005,0.266-0.094,0.442-0.371l0.527-0.831c0.25-0.394,0.625-0.664,0.989-0.625c1.007,0.045,2.106-0.138,3.273-0.542
						c0.237-0.084,0.464-0.059,0.638,0.066c0.168,0.12,0.262,0.315,0.262,0.551v0.748c0.016-0.006,0.048-0.019,0.088-0.042
						l3.072-1.773c0.254-0.147,0.444-0.477,0.444-0.674v-0.751c0-0.357,0.224-0.779,0.558-1.05c1.191-0.964,2.32-2.081,3.355-3.322
						c0.331-0.394,0.759-0.556,1.086-0.418l0.527,0.222c0.062,0.007,0.268-0.095,0.442-0.371l2.171-3.425
						c0.132-0.208,0.136-0.364,0.122-0.398l-0.486-0.186c-0.149-0.063-0.265-0.183-0.324-0.339c-0.085-0.217-0.061-0.49,0.068-0.771
						c0.639-1.397,1.104-2.79,1.382-4.14c0.077-0.382,0.357-0.771,0.697-0.967l0.748-0.432c0.254-0.147,0.444-0.477,0.444-0.674
						v-3.068c-0.016,0.006-0.048,0.019-0.088,0.042l-0.748,0.432c-0.237,0.139-0.481,0.168-0.689,0.083
						c-0.178-0.074-0.306-0.223-0.36-0.421c-0.264-0.989-0.708-1.808-1.317-2.439c-0.256-0.263-0.245-0.727,0.027-1.154l0.524-0.828
						c0.132-0.208,0.136-0.365,0.122-0.398l-2.132-0.883h-0.001c-0.051,0-0.269,0.102-0.438,0.371l-0.527,0.828
						c-0.241,0.383-0.615,0.626-0.959,0.626c-0.01,0-0.021-0.001-0.032-0.001c-1.009-0.042-2.104,0.137-3.274,0.541
						c-0.237,0.081-0.464,0.059-0.637-0.065c-0.168-0.12-0.262-0.316-0.262-0.552v-0.743c-0.016,0.006-0.048,0.019-0.088,0.042
						l-3.072,1.773c-0.254,0.147-0.444,0.477-0.444,0.674v0.746c0,0.358-0.225,0.78-0.559,1.05
						c-1.193,0.967-2.322,2.086-3.355,3.325c-0.329,0.394-0.756,0.559-1.086,0.418l-0.525-0.222
						c-0.041,0.001-0.266,0.095-0.442,0.371l-2.172,3.425c-0.132,0.208-0.136,0.364-0.122,0.398l0.487,0.186
						c0.149,0.064,0.264,0.184,0.325,0.339c0.083,0.217,0.059,0.49-0.069,0.771c-0.639,1.399-1.103,2.792-1.38,4.14
						c-0.077,0.384-0.358,0.773-0.699,0.968l-0.747,0.432c-0.254,0.147-0.444,0.477-0.444,0.674v3.068
						c0.016-0.006,0.048-0.019,0.088-0.042l0.749-0.433C204.057,226.307,204.21,226.263,204.352,226.263z M212.371,225.84
						c-0.645,0-1.241-0.136-1.765-0.413c-1.223-0.645-1.896-1.981-1.896-3.761c0-3.751,3.039-8.558,6.776-10.715
						c2.113-1.22,4.113-1.409,5.491-0.509c1.25,0.814,1.815,2.396,1.592,4.454c-0.36,3.322-2.873,7.274-5.976,9.398
						C215.102,225.315,213.64,225.84,212.371,225.84z M218.956,210.592c-0.924,0-1.993,0.329-3.114,0.976
						c-3.54,2.044-6.42,6.574-6.42,10.099c0,1.504,0.539,2.616,1.517,3.132c1.291,0.683,3.256,0.274,5.251-1.091
						c2.947-2.017,5.332-5.754,5.671-8.887c0.192-1.778-0.26-3.121-1.274-3.781C220.129,210.739,219.576,210.592,218.956,210.592z"
						/>
				</g>
			</g>
			<g>
				<g>
					<path style="fill:#BA68C8;" d="M173.19,292.549c-0.972,0-1.943-0.255-2.828-0.768c-1.767-1.021-2.821-2.849-2.821-4.889
						c0-3.873,2.085-7.479,5.441-9.41l114.407-65.854c1.768-1.018,3.879-1.017,5.645,0.005c1.768,1.021,2.822,2.85,2.822,4.89
						c0,3.872-2.085,7.478-5.441,9.411l-114.407,65.853C175.125,292.296,174.157,292.549,173.19,292.549z M290.208,211.936
						c-0.786,0-1.57,0.206-2.286,0.618l-114.407,65.854c-3.026,1.742-4.906,4.993-4.906,8.485c0,1.655,0.855,3.137,2.288,3.965
						c1.43,0.828,3.143,0.831,4.578,0.005l114.407-65.853c3.026-1.743,4.906-4.995,4.906-8.486c0-1.655-0.855-3.138-2.288-3.966
						C291.783,212.143,290.995,211.936,290.208,211.936z"/>
				</g>
				<g>
					<path style="fill:#BA68C8;" d="M245.114,238.944v10.18l-69.366,39.922c-2.335,1.353-5.268-0.342-5.268-3.047
						c0-1.267,0.342-2.492,0.954-3.545c0.612-1.068,1.509-1.979,2.606-2.605L245.114,238.944z"/>
				</g>
				<g>
					<g>
						<path style="fill:#BA68C8;" d="M206.841,252.058c-0.654-0.292-0.979-1.066-0.979-2.321v-4.996l1.254-0.724v4.946
							c0,1.883,0.825,2.348,2.474,1.396c0.802-0.464,1.418-1.051,1.845-1.762c0.425-0.711,0.64-1.543,0.64-2.497v-4.946l1.218-0.703
							v4.996c0,1.264-0.327,2.416-0.979,3.459c-0.654,1.041-1.566,1.901-2.738,2.577
							C208.405,252.159,207.493,252.352,206.841,252.058z"/>
					</g>
					<g>
						<path style="fill:#BA68C8;" d="M221.977,236.253c0.654,0.167,0.98,0.728,0.98,1.682c0,0.954-0.327,1.89-0.98,2.811
							c-0.652,0.922-1.548,1.71-2.686,2.367l-2.17,1.253v2.661l-1.256,0.725v-8.786l3.426-1.979
							C220.429,236.331,221.325,236.086,221.977,236.253z M221.073,240.483c0.418-0.58,0.627-1.188,0.627-1.824
							c0-0.637-0.209-1.003-0.627-1.1c-0.417-0.098-1.025,0.083-1.82,0.542l-2.133,1.232v3.942l2.133-1.232
							C220.048,241.584,220.656,241.064,221.073,240.483z"/>
					</g>
					<g>
						<path style="fill:#BA68C8;" d="M224.799,233.807l3.703-2.138c0.93-0.537,1.753-0.829,2.474-0.876
							c0.719-0.047,1.278,0.148,1.675,0.583c0.398,0.437,0.596,1.085,0.596,1.947c0,0.861-0.199,1.741-0.596,2.635
							c-0.398,0.894-0.956,1.734-1.675,2.517c-0.72,0.784-1.543,1.443-2.474,1.98l-3.703,2.138V233.807z M228.428,239.407
							c0.711-0.41,1.336-0.911,1.876-1.497c0.539-0.588,0.957-1.215,1.249-1.882c0.293-0.667,0.439-1.327,0.439-1.979
							c0-0.653-0.146-1.145-0.439-1.473c-0.292-0.329-0.709-0.475-1.249-0.44c-0.539,0.036-1.165,0.259-1.876,0.669l-2.372,1.37
							v6.603L228.428,239.407z"/>
					</g>
					<g>
						<path style="fill:#BA68C8;" d="M240.64,231.251l-4.669,2.695l-0.966,2.755l-1.292,0.746l3.978-11.083l1.243-0.717l3.99,6.482
							l-1.318,0.76L240.64,231.251z M240.202,230.5l-1.895-3.21l-1.896,5.399L240.202,230.5z"/>
					</g>
					<g>
						<path style="fill:#BA68C8;" d="M245.534,222.927l-3.012,1.739v-1.091l7.268-4.196v1.091l-3.013,1.739v7.694l-1.243,0.717
							V222.927z"/>
					</g>
					<g>
						<path style="fill:#BA68C8;" d="M257.535,222.602v1.091l-6.376,3.682v-8.786l6.201-3.58v1.091l-4.946,2.855v2.699l4.406-2.544
							v1.068l-4.406,2.544v2.836L257.535,222.602z"/>
					</g>
				</g>
			</g>
		</g>
	</g>
</g>
<g id="Floder">
	<g>
		<polyline style="fill:#BA68C8;" points="331.238,85.632 372.617,61.435 374.094,62.332 332.477,86.401 331.419,85.723 		"/>
		<polyline style="fill:#BA68C8;" points="318.489,89.565 318.489,139.575 318.658,140.945 324.864,139.045 374.094,111.768 
			374.094,62.332 332.477,86.401 330.926,82.468 318.489,89.565 		"/>
		<polyline style="opacity:0.2;" points="318.489,89.565 318.489,139.575 318.658,140.945 324.864,139.045 374.094,111.768 
			374.094,62.332 332.477,86.401 330.926,82.468 318.489,89.565 		"/>
		<g>
			<path style="fill:#E0E0E0;" d="M377.352,56.892c0-0.398-0.426-0.639-0.782-0.44l-40.83,23.762
				c-0.654,0.384-1.052,1.094-1.052,1.848v36.055c0,0.44,0.426,0.739,0.824,0.64c-0.81,0.412-1.649-0.029-1.649-0.029
				c-0.767-0.412-0.725-1.265-0.725-1.265V81.407c0-0.469,0.156-0.924,0.426-1.293c0.171-0.227,0.384-0.412,0.625-0.554
				l40.844-23.762c0,0,0.583-0.384,1.364,0.043C377.21,56.281,377.352,56.565,377.352,56.892z"/>
			<path style="fill:#FAFAFA;" d="M377.352,56.892c0-0.398-0.426-0.639-0.782-0.44l-40.83,23.762
				c-0.369,0.213-0.654,0.526-0.824,0.895l-1.35-0.995c0.171-0.227,0.384-0.412,0.625-0.554l40.844-23.762
				c0,0,0.583-0.384,1.364,0.043C377.21,56.281,377.352,56.565,377.352,56.892z"/>
			<path style="fill:#EBEBEB;" d="M376.047,95.172l-40.383,23.505c-0.435,0.253-0.982-0.061-0.982-0.564V82.06
				c0-0.759,0.403-1.46,1.059-1.842l40.834-23.768c0.343-0.2,0.774,0.048,0.774,0.445v36.011
				C377.35,93.84,376.854,94.703,376.047,95.172z"/>
		</g>
		<path style="fill:#BA68C8;" d="M329.699,100.293l53.859-31.175l-9.463,42.65l-53.859,31.175c0,0-0.864,0.413-1.415,0.165
			c0,0,0.054,0.051,0.595-1.555C319.957,139.947,329.699,100.293,329.699,100.293z"/>
		<polygon style="fill:#BA68C8;" points="382.235,68.469 383.558,69.118 329.699,100.293 328.376,99.644 		"/>
		<polyline style="fill:#BA68C8;" points="317.431,88.886 329.795,81.699 330.926,82.468 318.489,89.565 317.431,88.886 		"/>
		<polyline style="opacity:0.2;fill:#FFFFFF;" points="331.998,85.187 372.617,61.435 374.094,62.332 332.477,86.401 
			331.998,85.187 		"/>
		<polygon style="opacity:0.2;fill:#FFFFFF;" points="382.235,68.469 383.558,69.118 329.699,100.293 328.376,99.644 		"/>
		<polyline style="opacity:0.2;fill:#FFFFFF;" points="317.431,88.886 329.795,81.699 330.926,82.468 318.489,89.565 
			317.431,88.886 		"/>
		<path style="fill:#BA68C8;" d="M317.431,88.886v51.963c0,0,0.031,1.272,0.746,1.933c0.564,0.521,1.53,0.435,1.78-0.393
			l9.742-42.096l-1.323-0.649l-9.033,40.159c0,0-0.143,0.353-0.505,0.253c-0.353-0.097-0.349-0.482-0.349-0.482v-50.01
			L317.431,88.886z"/>
		<path style="opacity:0.4;" d="M317.431,88.886v51.963c0,0,0.031,1.272,0.746,1.933c0.564,0.521,1.53,0.435,1.78-0.393
			l9.742-42.096l-1.323-0.649l-9.033,40.159c0,0-0.143,0.353-0.505,0.253c-0.353-0.097-0.349-0.482-0.349-0.482v-50.01
			L317.431,88.886z"/>
	</g>
</g>
<g id="Icon">
	<g>
		<path style="fill:#BA68C8;" d="M141.891,248.204l-3.458,0.771v45.822c0,1.034-0.547,1.983-1.443,2.503l-66.666,38.696v4.67
			c-1.568,0.599-2.74,0.323-3.55-0.151c-0.889-0.514-1.41-1.495-1.41-2.523v-50.617c0-0.395,0.079-0.777,0.231-1.133
			c0.244-0.567,0.665-1.054,1.219-1.37l69.736-40.475c0.039-0.026,0.079-0.033,0.119-0.053v-0.007c0,0,1.39-0.725,3.274,0.31
			C141.015,245.24,141.891,246.149,141.891,248.204z"/>
		<path style="opacity:0.2;" d="M141.891,248.204l-3.458,0.771v45.822c0,1.034-0.547,1.983-1.443,2.503l-66.666,38.696v4.67
			c-1.568,0.599-2.74,0.323-3.55-0.151c-0.889-0.514-1.41-1.495-1.41-2.523v-50.617c0-0.395,0.079-0.777,0.231-1.133
			c0.244-0.567,0.665-1.054,1.219-1.37l69.736-40.475c0.039-0.026,0.079-0.033,0.119-0.053v-0.007c0,0,1.39-0.725,3.274,0.31
			C141.015,245.24,141.891,246.149,141.891,248.204z"/>
		<path style="fill:#BA68C8;" d="M141.891,248.204l-3.458,0.771v1.831l-67.924,38.196l-4.914-2.76
			c0.244-0.567,0.665-1.054,1.219-1.37l69.736-40.475c0.039-0.026,0.079-0.033,0.119-0.053v-0.007c0,0,1.39-0.725,3.274,0.31
			C141.015,245.24,141.891,246.149,141.891,248.204z"/>
		<path style="opacity:0.2;fill:#FFFFFF;" d="M141.891,248.204l-3.458,0.771v1.831l-67.924,38.196l-4.914-2.76
			c0.244-0.567,0.665-1.054,1.219-1.37l69.736-40.475c0.039-0.026,0.079-0.033,0.119-0.053v-0.007c0,0,1.39-0.725,3.274,0.31
			C141.015,245.24,141.891,246.149,141.891,248.204z"/>
		<path style="fill:#BA68C8;" d="M70.27,287.589l69.736-40.477c0.839-0.484,1.887,0.121,1.887,1.089v49.312
			c0,1.032-0.551,1.986-1.445,2.502l-69.736,40.477c-0.839,0.484-1.887-0.121-1.887-1.089v-49.311
			C68.826,289.059,69.376,288.105,70.27,287.589z"/>
		<g>
			<g>
				<path style="fill:#FFFFFF;" d="M121.183,270.784l-2.318,3.656c-3.261-1.922-8.101-1.542-13.506,1.578
					c-8.469,4.89-15.558,14.903-17.345,23.862c-0.143,0.718,0.351,1.035,1.003,0.659l2.437-1.407
					c0.457-0.264,0.864-0.801,0.982-1.31c1.521-6.592,6.728-13.812,12.924-17.389c4.188-2.418,7.917-2.64,10.366-1.041l-3.017,4.759
					c-0.613,0.967-0.238,1.801,0.625,1.389l8.079-3.857c0.817-0.39,1.526-1.441,1.526-2.262v-8.924
					C122.938,269.582,121.831,269.762,121.183,270.784z"/>
				<path style="fill:#FFFFFF;" d="M105.359,307.171c-4.186,2.417-7.918,2.643-10.37,1.047l3.021-4.765
					c0.613-0.967,0.238-1.801-0.625-1.389l-8.079,3.857c-0.817,0.39-1.526,1.441-1.526,2.262v8.924c0,0.916,1.107,0.735,1.755-0.286
					l2.318-3.656c3.261,1.922,8.101,1.542,13.506-1.578c8.469-4.889,15.558-14.903,17.345-23.862
					c0.143-0.718-0.351-1.035-1.002-0.659l-2.437,1.407c-0.457,0.264-0.864,0.801-0.982,1.31
					C116.763,296.375,111.555,303.594,105.359,307.171z"/>
			</g>
		</g>
	</g>
</g>
<g id="Speech_bubbles">
	<g>
		<polygon style="fill:#BA68C8;" points="323.815,183.814 327.767,189.125 332.358,191.636 331.205,179.573 		"/>
		<polygon style="opacity:0.2;" points="323.815,183.814 327.767,189.125 332.358,191.636 331.205,179.573 		"/>
		<polygon style="fill:#BA68C8;" points="328.406,186.325 332.358,191.636 335.796,182.084 		"/>
		<path style="fill:#BA68C8;" d="M397.81,121.346l-3.458,0.771v20.131c0,1.034-0.547,1.983-1.443,2.503l-70.266,40.769v4.67
			c-1.568,0.599-2.74,0.323-3.55-0.151c-0.889-0.514-1.41-1.495-1.41-2.523v-24.926c0-0.395,0.079-0.777,0.231-1.133
			c0.244-0.566,0.665-1.054,1.219-1.37l73.336-42.547c0.04-0.026,0.079-0.033,0.119-0.053v-0.007c0,0,1.39-0.725,3.274,0.31
			C396.934,118.382,397.81,119.291,397.81,121.346z"/>
		<path style="opacity:0.2;" d="M397.81,121.346l-3.458,0.771v20.131c0,1.034-0.547,1.983-1.443,2.503l-70.266,40.769v4.67
			c-1.568,0.599-2.74,0.323-3.55-0.151c-0.889-0.514-1.41-1.495-1.41-2.523v-24.926c0-0.395,0.079-0.777,0.231-1.133
			c0.244-0.566,0.665-1.054,1.219-1.37l73.336-42.547c0.04-0.026,0.079-0.033,0.119-0.053v-0.007c0,0,1.39-0.725,3.274,0.31
			C396.934,118.382,397.81,119.291,397.81,121.346z"/>
		<path style="fill:#BA68C8;" d="M397.81,121.346l-3.458,0.771v1.831l-71.525,40.268l-4.914-2.76
			c0.244-0.566,0.665-1.054,1.219-1.37l73.336-42.547c0.04-0.026,0.079-0.033,0.119-0.053v-0.007c0,0,1.39-0.725,3.274,0.31
			C396.934,118.382,397.81,119.291,397.81,121.346z"/>
		<path style="opacity:0.2;fill:#FFFFFF;" d="M397.81,121.346l-3.458,0.771v1.831l-71.525,40.268l-4.914-2.76
			c0.244-0.566,0.665-1.054,1.219-1.37l73.336-42.547c0.04-0.026,0.079-0.033,0.119-0.053v-0.007c0,0,1.39-0.725,3.274,0.31
			C396.934,118.382,397.81,119.291,397.81,121.346z"/>
		<path style="fill:#BA68C8;" d="M322.588,162.804l73.337-42.55c0.839-0.484,1.887,0.121,1.887,1.089v23.621
			c0,1.032-0.551,1.986-1.445,2.502l-73.337,42.549c-0.839,0.484-1.887-0.121-1.887-1.09v-23.621
			C321.144,164.274,321.694,163.32,322.588,162.804z"/>
		<path style="fill:#FFFFFF;" d="M326.035,167.202c-0.267,0-0.525-0.139-0.668-0.386c-0.213-0.368-0.086-0.839,0.282-1.052
			l66.888-38.536c0.371-0.212,0.84-0.085,1.052,0.283c0.213,0.368,0.086,0.839-0.282,1.052l-66.888,38.536
			C326.298,167.169,326.165,167.202,326.035,167.202z"/>
		<path style="fill:#FFFFFF;" d="M326.035,172.517c-0.267,0-0.525-0.139-0.668-0.386c-0.213-0.368-0.086-0.839,0.282-1.052
			l66.888-38.536c0.371-0.212,0.84-0.084,1.052,0.283c0.213,0.368,0.086,0.839-0.282,1.052l-66.888,38.536
			C326.298,172.483,326.165,172.517,326.035,172.517z"/>
		<path style="fill:#FFFFFF;" d="M326.035,177.831c-0.267,0-0.525-0.139-0.668-0.386c-0.213-0.368-0.086-0.839,0.282-1.052
			l57.663-33.221c0.37-0.212,0.84-0.085,1.052,0.283c0.213,0.368,0.086,0.839-0.282,1.052l-57.663,33.221
			C326.298,177.798,326.165,177.831,326.035,177.831z"/>
		<path style="fill:#FFFFFF;" d="M326.035,183.146c-0.267,0-0.525-0.139-0.668-0.386c-0.213-0.368-0.086-0.839,0.282-1.052
			l66.888-38.536c0.371-0.212,0.84-0.085,1.052,0.283c0.213,0.368,0.086,0.839-0.282,1.052l-66.888,38.536
			C326.298,183.113,326.165,183.146,326.035,183.146z"/>
	</g>
	<g>
		<path style="fill:#BA68C8;" d="M89.786,248.467l1.314-4.145l-5.327,3.025l2.499,4.182c0.029,0.048,0.068,0.082,0.111,0.107
			l0,0.003l3.23,1.79v-6.262L89.786,248.467z"/>
		<path style="opacity:0.2;" d="M89.786,248.467l1.314-4.145l-5.327,3.025l2.499,4.182c0.029,0.048,0.068,0.082,0.111,0.107l0,0.003
			l3.23,1.79v-6.262L89.786,248.467z"/>
		<path style="fill:#BA68C8;" d="M103.577,218.728l-4.313,1.65v16.009c0,1.452-0.776,2.791-2.033,3.513l-14.423,8.283v5.065
			c-1.525,0.654-3.37-0.487-3.37-0.487c-2.231-1.23-2.085-2.761-2.085-2.761v-20.888c0-0.539,0.128-1.056,0.365-1.519
			c0.289-0.572,0.743-1.059,1.318-1.391l18.879-10.843c0,0,1.108-0.688,2.648-0.189
			C101.969,215.626,103.577,216.892,103.577,218.728z"/>
		<path style="opacity:0.2;" d="M103.577,218.728l-4.313,1.65v16.009c0,1.452-0.776,2.791-2.033,3.513l-14.423,8.283v5.065
			c-1.525,0.654-3.37-0.487-3.37-0.487c-2.231-1.23-2.085-2.761-2.085-2.761v-20.888c0-0.539,0.128-1.056,0.365-1.519
			c0.289-0.572,0.743-1.059,1.318-1.391l18.879-10.843c0,0,1.108-0.688,2.648-0.189
			C101.969,215.626,103.577,216.892,103.577,218.728z"/>
		<path style="fill:#BA68C8;" d="M103.577,218.728l-4.313,1.65v1.851l-16.831,8.265l-4.715-2.901
			c0.289-0.572,0.743-1.059,1.318-1.391l18.879-10.843c0,0,1.108-0.688,2.648-0.189
			C101.969,215.626,103.577,216.892,103.577,218.728z"/>
		<path style="opacity:0.2;fill:#FFFFFF;" d="M103.577,218.728l-4.313,1.65v1.851l-16.831,8.265l-4.715-2.901
			c0.289-0.572,0.743-1.059,1.318-1.391l18.879-10.843c0,0,1.108-0.688,2.648-0.189
			C101.969,215.626,103.577,216.892,103.577,218.728z"/>
		<path style="fill:#BA68C8;" d="M103.576,218.726v20.247c0,1.451-0.776,2.791-2.034,3.514l-18.735,10.76
			c-0.509,0.292-1.144-0.075-1.144-0.662V231.7c0-1.202,0.643-2.313,1.686-2.912l18.878-10.842
			C102.828,217.601,103.576,218.034,103.576,218.726z"/>
		<path style="fill:#BA68C8;" d="M88.95,249.117l2.499,4.182c0.138,0.23,0.483,0.19,0.564-0.066l2.264-7.141L88.95,249.117z"/>
		<g>
			<path style="fill:#FFFFFF;" d="M96.902,232.996c0,0.956,0.775,1.283,1.731,0.731c0.956-0.552,1.731-1.774,1.731-2.73
				s-0.775-1.283-1.731-0.732C97.677,230.817,96.902,232.04,96.902,232.996z"/>
			<path style="fill:#FFFFFF;" d="M90.682,236.587c0,0.956,0.775,1.283,1.731,0.732s1.731-1.774,1.731-2.73
				c0-0.956-0.775-1.283-1.731-0.731C91.457,234.408,90.682,235.631,90.682,236.587z"/>
			<path style="fill:#FFFFFF;" d="M84.463,240.178c0,0.956,0.775,1.283,1.731,0.731c0.956-0.552,1.731-1.774,1.731-2.73
				s-0.775-1.283-1.731-0.732C85.238,237.999,84.463,239.222,84.463,240.178z"/>
		</g>
	</g>
</g>
<g id="Suitcase">
	<g>
		<path style="fill:#E6E6E6;" d="M389.077,391.161l-6.41,3.692c-0.304,0.175-0.678,0.175-0.982,0l-37.281-21.52
			c-0.2-0.116-0.2-0.405,0-0.521l6.41-3.687c0.304-0.175,0.678-0.174,0.981,0.001l37.282,21.515
			C389.278,390.756,389.278,391.046,389.077,391.161z"/>
		<path style="fill:#BA68C8;" d="M389.22,353.511v30.917c0,0,0.082,1.402-1.402,2.515c-0.727,0.546-2.086,1.268-3.379,1.783
			c-1.899,0.757-3.463,0.7-3.463,0.7l1.153-31.777l1.546-2.457L389.22,353.511z"/>
		<path style="fill:#BA68C8;" d="M382.129,357.649v30.545c0,0.719-0.614,1.306-1.329,1.225c-0.41-0.046-0.942-0.224-1.634-0.624
			c-2.635-1.521-32.235-18.607-32.235-18.607s-2.678-1.567-2.678-5.021v-29.435l6.733,1.84l27.232,16.42L382.129,357.649z"/>
		<path style="opacity:0.4;" d="M382.129,357.649v30.545c0,0.719-0.614,1.306-1.329,1.225c-0.41-0.046-0.942-0.224-1.634-0.624
			c-2.635-1.521-32.235-18.607-32.235-18.607s-2.678-1.567-2.678-5.021v-29.435l6.733,1.84l27.232,16.42L382.129,357.649z"/>
		<path style="fill:#BA68C8;" d="M344.254,347.596c0,0-0.213,2.29,2.979,4.092c2.972,1.678,28.765,16.509,32.3,18.542
			c0.457,0.263,1.019,0.33,1.499,0.111c0.549-0.251,1.098-0.885,1.098-2.415v-11.001l-36.724-21.432l-1.151,0.238V347.596z"/>
		<path style="opacity:0.2;" d="M344.254,347.596c0,0-0.213,2.29,2.979,4.092c2.972,1.678,28.765,16.509,32.3,18.542
			c0.457,0.263,1.019,0.33,1.499,0.111c0.549-0.251,1.098-0.885,1.098-2.415v-11.001l-36.724-21.432l-1.151,0.238V347.596z"/>
		<path style="fill:#BA68C8;" d="M389.077,353.829l-6.41,3.692c-0.304,0.175-0.678,0.175-0.982,0L344.404,336
			c-0.2-0.116-0.2-0.405,0-0.521l6.41-3.687c0.304-0.175,0.678-0.174,0.981,0.001l37.282,21.515
			C389.278,353.424,389.278,353.713,389.077,353.829z"/>
		<path style="opacity:0.1;fill:#FFFFFF;" d="M389.077,353.829l-6.41,3.692c-0.304,0.175-0.678,0.175-0.982,0L344.404,336
			c-0.2-0.116-0.2-0.405,0-0.521l6.41-3.687c0.304-0.175,0.678-0.174,0.981,0.001l37.282,21.515
			C389.278,353.424,389.278,353.713,389.077,353.829z"/>
		<path style="fill:#37474F;" d="M358.984,357.131v2.275c0,0.525,0.28,1.009,0.735,1.27l6.24,3.585
			c0.348,0.2,0.782-0.051,0.782-0.452v-2.28c0-0.525-0.281-1.01-0.736-1.271l-6.239-3.579
			C359.417,356.479,358.984,356.73,358.984,357.131z"/>
		<path style="fill:#455A64;" d="M360.868,332.841c-1.195,0.31-1.754,1-1.754,1l1.754,2.811v3.926l1.159,0.667v-4.975l10.113,5.857
			l0.724,7.345l1.754-1v-7.743L360.868,332.841z"/>
		<polygon style="fill:#263238;" points="362.028,336.045 360.274,335.733 360.274,342.245 362.028,341.245 		"/>
		<path style="fill:#37474F;" d="M359.115,333.841v7.737c0,0,0.456,0.484,1.159,0.667v-6.512l11.432,6.56v6.512
			c0,0,0.354,0.495,1.159,0.667v-7.743L359.115,333.841z"/>
	</g>
</g>
<g id="Character">
	<g>
		<path style="fill:#263238;" d="M345.005,391.691c0,0,0.351,0.077,0.429,1.183c0.077,1.106,0.154,4.27,0,5.041
			c-0.154,0.772-1.835,1.903-3.901,1.672c-2.066-0.231-3.507-1.826-4.535-3.395c-1.029-1.569-5.53-6.97-6.353-8.282
			c-0.823-1.312-2.094-4.765-0.5-6.188c1.342-1.199,6.364,1.532,7.702,3.05C339.183,386.29,345.005,391.691,345.005,391.691z"/>
		<path style="fill:#263238;" d="M323.622,407.175c0,0,0.772,1.055,1.003,2.521c0.232,1.466,0.18,5.89,0,6.379
			c-0.18,0.489-1.157,1.363-2.932,1.466c-1.055,0.061-2.529,0.113-3.55,0.145c-0.763,0.024-1.507,0.214-2.186,0.562
			c-1.23,0.631-3.427,1.708-5.658,2.559c-3.37,1.286-5.995,1.18-8.13,0.743c-2.135-0.437-4.626-1.762-5.632-3.11
			c-0.465-0.624-0.469-1.687-0.135-2.124c0.334-0.437,5.434-2.539,8.031-3.825c2.598-1.286,10.177-4.347,10.837-4.87
			C315.932,407.098,323.622,407.175,323.622,407.175z"/>
		<path style="fill:#FFA8A7;" d="M308.625,219.784c0.331-0.626,0.498-1.323,0.488-2.032c-0.028-1.971-0.02-4.604,0.025-5.336
			c0.222-3.432,1.251-4.799,1.251-4.799c4.206-5.49,19.597-4.255,20.692-1.169c1.086,3.054,3.243,19.951-1.506,22.956
			c0.486,2.634,1.852,9.07,1.852,9.07c-3.844,3.49-11.877,2.37-11.877,2.37c0.239-1.177-0.84-5.877-1.424-8.272
			c-3.292,0.395-6.149,0.346-7.078-0.346c-0.008,0-0.008,0-0.017-0.008c-0.074-0.058-0.14-0.124-0.189-0.189
			c-0.715-1.012-1.195-3.303-1.472-7.952c-0.872,0.115-2.139-0.195-2.311-0.539C306.903,223.227,307.837,221.275,308.625,219.784z"
			/>
		<g>
			<g>
				<path style="fill:#374D56;" d="M318.351,269.802l-13.486-36.81c-0.25-0.682-0.74-1.186-1.327-1.492l0.304-0.401l-1.795,0.08v0
					c-0.399,0.031-0.799,0.148-1.173,0.364l-20.509,11.842c-1.167,0.674-1.681,2.09-1.217,3.355l13.486,36.81
					c0.379,1.035,1.299,1.685,2.302,1.796l-0.002,0.007l1.554,0.09l-0.25-0.276c0.13-0.051,0.261-0.096,0.386-0.168l20.509-11.842
					C318.301,272.484,318.815,271.068,318.351,269.802z"/>
				<path style="fill:#556F77;" d="M280.606,246.618l13.595,37.109c0.559,1.525,2.358,2.178,3.765,1.366l20.785-12.001
					c1.101-0.636,1.586-1.972,1.148-3.166l-13.595-37.109c-0.559-1.525-2.358-2.178-3.765-1.366l-20.785,12.001
					C280.654,244.088,280.169,245.424,280.606,246.618z"/>
				<path style="fill:#FFFFFF;" d="M282.476,246.368l12.706,34.681c0.255,0.696,1.076,0.993,1.717,0.623l20.187-11.655
					c0.502-0.29,0.723-0.899,0.524-1.444l-12.706-34.681c-0.255-0.696-1.076-0.993-1.717-0.623L283,244.924
					C282.497,245.214,282.276,245.823,282.476,246.368z"/>
			</g>
			<g>
				<g>
					<g>
						<path style="fill:#BA68C8;" d="M297.832,261.406c-0.016-0.004-0.034-0.011-0.052-0.021l-0.46-0.267
							c-0.037-0.022-0.072-0.055-0.1-0.094c-0.041-0.06-0.06-0.127-0.053-0.185l0.018-0.14c0.003-0.026-0.005-0.049-0.01-0.055
							c-0.175-0.158-0.341-0.353-0.488-0.574c-0.001,0-0.002,0.001-0.003,0.002l-0.092,0.054c-0.036,0.021-0.086,0.013-0.139-0.023
							c-0.047-0.032-0.088-0.081-0.113-0.136l-0.272-0.598c-0.042-0.092-0.031-0.186,0.025-0.219l0.092-0.054
							c0.02-0.012,0.028-0.048,0.018-0.082c-0.074-0.261-0.119-0.523-0.132-0.778c-0.001-0.015-0.004-0.027-0.007-0.034
							l-0.098-0.057c-0.037-0.021-0.072-0.055-0.099-0.094c-0.041-0.06-0.06-0.127-0.053-0.185l0.074-0.579
							c0.012-0.093,0.084-0.123,0.172-0.072l0.111,0.064c0.001-0.001,0.018-0.007,0.026-0.032c0.072-0.205,0.172-0.382,0.298-0.526
							c0.019-0.021,0.018-0.061,0.007-0.085l-0.066-0.145c-0.042-0.092-0.031-0.186,0.025-0.219l0.378-0.221
							c0.036-0.021,0.086-0.013,0.139,0.022c0.047,0.032,0.088,0.082,0.113,0.136l0.06,0.131c0.182-0.031,0.366-0.02,0.558,0.033
							c0.011,0.004,0.031-0.006,0.036-0.043l0.018-0.14c0.012-0.091,0.086-0.122,0.172-0.072l0.46,0.267
							c0.037,0.021,0.072,0.055,0.099,0.094c0.041,0.06,0.06,0.127,0.053,0.185l-0.018,0.14c-0.003,0.026,0.005,0.049,0.01,0.055
							c0.175,0.158,0.341,0.353,0.488,0.574c0.001,0,0.002-0.001,0.003-0.002l0.092-0.054c0.036-0.021,0.086-0.013,0.139,0.023
							c0.047,0.032,0.088,0.081,0.113,0.136l0.272,0.598c0.042,0.092,0.031,0.186-0.025,0.219l-0.092,0.054
							c-0.02,0.012-0.028,0.048-0.018,0.082c0.074,0.262,0.119,0.524,0.132,0.778c0.001,0.022,0.008,0.037,0.011,0.041l0.095,0.05
							c0.037,0.022,0.072,0.055,0.1,0.094c0.041,0.06,0.06,0.127,0.053,0.185l-0.074,0.579c-0.012,0.092-0.085,0.123-0.172,0.072
							l-0.111-0.064c-0.001,0.001-0.018,0.007-0.027,0.032c-0.072,0.205-0.172,0.382-0.298,0.526
							c-0.019,0.021-0.018,0.061-0.007,0.085l0.067,0.146c0.042,0.092,0.031,0.186-0.025,0.219l-0.378,0.221
							c-0.036,0.021-0.086,0.013-0.139-0.022c-0.047-0.032-0.088-0.082-0.113-0.136l-0.06-0.131
							c-0.182,0.031-0.366,0.021-0.558-0.033l0,0c-0.009-0.002-0.031,0.007-0.036,0.043l-0.018,0.14
							C297.944,261.387,297.896,261.421,297.832,261.406z M296.635,259.93c0.015,0.003,0.03,0.01,0.047,0.019
							c0.038,0.022,0.073,0.056,0.1,0.097c0.134,0.203,0.283,0.381,0.446,0.528c0.068,0.062,0.107,0.152,0.098,0.224l-0.018,0.14
							c-0.004,0.035,0.009,0.066,0.014,0.073l0.449,0.258c0.011,0.002,0.038-0.008,0.044-0.054l0.018-0.141
							c0.008-0.067,0.05-0.104,0.117-0.082c0.179,0.05,0.354,0.059,0.522,0.027c0.034-0.007,0.075,0.007,0.117,0.039
							c0.04,0.03,0.074,0.072,0.094,0.118l0.066,0.146c0.002-0.001,0.007-0.002,0.012-0.005l0.378-0.221
							c0.031-0.018,0.035-0.075,0.018-0.113l-0.067-0.146c-0.032-0.07-0.03-0.143,0.004-0.182c0.122-0.139,0.219-0.311,0.289-0.511
							c0.023-0.063,0.083-0.078,0.152-0.037l0.111,0.065c0.011,0.004,0.038-0.008,0.044-0.054l0.074-0.579
							c0.005-0.035-0.009-0.065-0.014-0.073l-0.101-0.056c-0.032-0.018-0.063-0.047-0.087-0.079
							c-0.034-0.046-0.054-0.098-0.057-0.147c-0.013-0.246-0.055-0.499-0.127-0.75c-0.02-0.071-0.006-0.136,0.036-0.16l0.092-0.054
							c0.031-0.018,0.035-0.075,0.018-0.113l-0.272-0.598c-0.002,0.001-0.007,0.002-0.012,0.005l-0.092,0.054
							c-0.029,0.017-0.069,0.013-0.113-0.012c-0.037-0.022-0.073-0.056-0.1-0.097c-0.134-0.203-0.284-0.381-0.446-0.528
							c-0.068-0.062-0.107-0.152-0.098-0.224l0.018-0.14c0.005-0.035-0.009-0.066-0.014-0.073l-0.45-0.258h0
							c-0.009-0.002-0.038,0.009-0.043,0.055l-0.018,0.14c-0.008,0.065-0.052,0.097-0.111,0.083c-0.002,0-0.004-0.001-0.006-0.001
							c-0.179-0.049-0.354-0.059-0.522-0.028c-0.034,0.006-0.075-0.007-0.117-0.038c-0.04-0.03-0.074-0.072-0.095-0.118
							l-0.066-0.145c-0.002,0.001-0.007,0.002-0.012,0.005l-0.378,0.221c-0.031,0.018-0.035,0.075-0.017,0.113l0.066,0.145
							c0.032,0.07,0.03,0.143-0.004,0.182c-0.122,0.14-0.219,0.312-0.289,0.511c-0.022,0.063-0.082,0.078-0.152,0.038l-0.111-0.065
							c-0.007-0.001-0.038,0.008-0.044,0.054l-0.074,0.579c-0.005,0.035,0.009,0.066,0.014,0.073l0.101,0.056
							c0.031,0.018,0.062,0.047,0.086,0.079c0.034,0.046,0.054,0.098,0.056,0.147c0.013,0.247,0.056,0.499,0.127,0.75
							c0.021,0.072,0.006,0.136-0.036,0.16l-0.092,0.054c-0.031,0.018-0.035,0.075-0.018,0.113l0.272,0.598
							c0.002-0.001,0.007-0.002,0.012-0.005l0.092-0.054C296.588,259.926,296.61,259.924,296.635,259.93z M297.994,260.173
							c-0.112-0.026-0.228-0.077-0.344-0.152c-0.27-0.175-0.506-0.463-0.664-0.81c-0.333-0.731-0.23-1.544,0.229-1.812
							c0.26-0.152,0.591-0.108,0.911,0.124c0.29,0.209,0.529,0.54,0.672,0.932c0.232,0.632,0.145,1.3-0.207,1.588
							C298.423,260.181,298.215,260.224,297.994,260.173z M297.788,257.469c-0.161-0.038-0.318-0.017-0.456,0.064
							c-0.435,0.254-0.535,1.02-0.222,1.707c0.133,0.293,0.326,0.532,0.542,0.672c0.285,0.185,0.591,0.185,0.818,0.001
							c0.334-0.273,0.418-0.904,0.199-1.501c-0.124-0.339-0.322-0.619-0.557-0.788C298.005,257.546,297.896,257.495,297.788,257.469
							z"/>
					</g>
					<path style="fill:#BA68C8;" d="M299.951,256.996l0.114-0.067c0.039-0.023,0.091,0.001,0.127,0.056
						c0.177,0.269,0.376,0.503,0.587,0.695c0.044,0.04,0.071,0.109,0.063,0.169l-0.022,0.174c-0.01,0.08,0.033,0.175,0.097,0.212
						l0.569,0.33c0.064,0.037,0.124,0.002,0.134-0.078l0.022-0.174c0.008-0.059,0.047-0.09,0.095-0.077
						c0.228,0.063,0.455,0.076,0.672,0.036c0.044-0.008,0.095,0.028,0.123,0.089l0.082,0.181c0.038,0.083,0.111,0.125,0.163,0.095
						l0.467-0.273c0.052-0.031,0.064-0.123,0.026-0.205l-0.082-0.181c-0.028-0.061-0.024-0.129,0.007-0.165
						c0.155-0.177,0.277-0.394,0.364-0.641c0.018-0.052,0.063-0.07,0.11-0.043l0.138,0.08c0.064,0.037,0.124,0.002,0.134-0.078
						l0.092-0.717c0.01-0.08-0.033-0.175-0.097-0.212l-0.138-0.08c-0.047-0.027-0.081-0.092-0.085-0.156
						c-0.016-0.307-0.069-0.626-0.16-0.946c-0.018-0.065-0.005-0.127,0.033-0.15l0.114-0.067c0.052-0.031,0.064-0.123,0.026-0.205
						l-0.337-0.74c-0.038-0.083-0.111-0.125-0.163-0.095l-0.114,0.066c-0.039,0.023-0.091-0.001-0.127-0.056
						c-0.177-0.269-0.376-0.503-0.588-0.696c-0.044-0.04-0.071-0.109-0.063-0.169l0.022-0.173c0.01-0.08-0.033-0.175-0.097-0.212
						l-0.569-0.33c-0.064-0.037-0.124-0.002-0.134,0.078l-0.022,0.173c-0.008,0.059-0.047,0.09-0.095,0.077
						c-0.228-0.063-0.455-0.076-0.672-0.036c-0.044,0.008-0.095-0.028-0.123-0.089l-0.082-0.18
						c-0.038-0.083-0.111-0.125-0.163-0.095l-0.467,0.273c-0.052,0.031-0.064,0.123-0.026,0.205l0.082,0.18
						c0.028,0.061,0.024,0.129-0.007,0.165c-0.155,0.177-0.277,0.395-0.363,0.642c-0.018,0.052-0.063,0.07-0.11,0.043l-0.138-0.08
						c-0.064-0.037-0.124-0.002-0.134,0.078l-0.092,0.716c-0.01,0.08,0.033,0.175,0.097,0.212l0.138,0.08
						c0.047,0.027,0.082,0.092,0.085,0.156c0.016,0.307,0.069,0.626,0.16,0.946c0.018,0.065,0.005,0.127-0.033,0.15l-0.114,0.067
						c-0.052,0.031-0.064,0.123-0.026,0.206l0.337,0.74C299.826,256.984,299.899,257.027,299.951,256.996z M300.585,255.966
						c-0.4-0.877-0.275-1.853,0.279-2.177c0.594-0.347,1.439,0.194,1.807,1.196c0.279,0.759,0.173,1.564-0.251,1.911
						C301.862,257.352,301.012,256.902,300.585,255.966z"/>
					<path style="fill:#BA68C8;" d="M292.272,252.999l0.156-0.091c0.053-0.031,0.124,0.002,0.174,0.077
						c0.242,0.368,0.514,0.688,0.803,0.951c0.06,0.055,0.097,0.15,0.086,0.231l-0.03,0.237c-0.014,0.11,0.045,0.24,0.132,0.29
						l0.777,0.452c0.087,0.051,0.169,0.003,0.183-0.107l0.03-0.238c0.01-0.081,0.064-0.123,0.129-0.105
						c0.312,0.086,0.622,0.104,0.918,0.049c0.06-0.011,0.13,0.038,0.168,0.122l0.113,0.247c0.052,0.113,0.151,0.171,0.223,0.129
						l0.638-0.373c0.072-0.042,0.088-0.168,0.036-0.281l-0.113-0.247c-0.038-0.084-0.033-0.176,0.01-0.226
						c0.211-0.242,0.378-0.539,0.497-0.877c0.025-0.071,0.086-0.096,0.151-0.059l0.188,0.11c0.087,0.051,0.169,0.003,0.183-0.107
						l0.126-0.98c0.014-0.11-0.045-0.24-0.132-0.29l-0.188-0.109c-0.064-0.037-0.111-0.126-0.116-0.214
						c-0.022-0.419-0.094-0.856-0.219-1.293c-0.025-0.089-0.007-0.174,0.046-0.205l0.155-0.091c0.072-0.042,0.088-0.168,0.036-0.281
						l-0.461-1.012c-0.052-0.113-0.151-0.171-0.223-0.129l-0.155,0.091c-0.053,0.031-0.124-0.002-0.174-0.077
						c-0.242-0.368-0.514-0.688-0.803-0.951c-0.06-0.055-0.097-0.15-0.086-0.231l0.03-0.237c0.014-0.11-0.045-0.24-0.132-0.29
						l-0.777-0.452c-0.087-0.051-0.169-0.003-0.183,0.107l-0.03,0.237c-0.01,0.081-0.064,0.123-0.13,0.105
						c-0.312-0.086-0.622-0.104-0.919-0.049c-0.06,0.011-0.13-0.038-0.168-0.122l-0.112-0.246c-0.052-0.113-0.151-0.171-0.223-0.129
						l-0.638,0.373c-0.072,0.042-0.088,0.168-0.036,0.281l0.112,0.246c0.038,0.084,0.033,0.176-0.01,0.225
						c-0.212,0.242-0.378,0.54-0.497,0.878c-0.025,0.071-0.086,0.096-0.151,0.059l-0.188-0.109
						c-0.087-0.051-0.169-0.003-0.183,0.107l-0.126,0.98c-0.014,0.11,0.045,0.24,0.132,0.29l0.188,0.109
						c0.064,0.037,0.111,0.126,0.116,0.214c0.022,0.419,0.094,0.856,0.219,1.293c0.025,0.089,0.007,0.174-0.045,0.205l-0.156,0.091
						c-0.071,0.042-0.088,0.168-0.036,0.281l0.461,1.012C292.101,252.983,292.2,253.04,292.272,252.999z M293.139,251.59
						c-0.546-1.199-0.377-2.533,0.381-2.976c0.812-0.475,1.967,0.265,2.47,1.635c0.381,1.038,0.237,2.138-0.343,2.613
						C294.885,253.486,293.722,252.871,293.139,251.59z"/>
				</g>
				<g>
					<g>
						<path style="fill:#BA68C8;" d="M297.09,271.577c-0.169-0.039-0.361-0.129-0.561-0.264c-0.398-0.271-0.744-0.669-0.925-1.067
							c-0.344-0.755-0.3-1.372,0.113-1.612l14.078-8.186c0.217-0.127,0.585-0.041,0.983,0.23c0.398,0.271,0.744,0.67,0.925,1.067
							c0.343,0.754,0.3,1.372-0.113,1.612l-14.078,8.185C297.404,271.606,297.258,271.616,297.09,271.577z M310.313,260.622
							c-0.137-0.032-0.255-0.024-0.343,0.028l-14.078,8.185c-0.372,0.217-0.411,0.774-0.101,1.454
							c0.147,0.322,0.427,0.646,0.75,0.865c0.323,0.219,0.621,0.289,0.798,0.187l14.078-8.185c0.372-0.217,0.411-0.774,0.101-1.454
							c-0.147-0.322-0.427-0.646-0.75-0.865C310.606,260.727,310.45,260.654,310.313,260.622z"/>
					</g>
					<path style="fill:#BA68C8;" d="M304.857,264.053l0.903,1.983l-8.536,4.962c-0.287,0.169-0.947-0.28-1.187-0.807
						c-0.112-0.247-0.162-0.471-0.148-0.652c0.012-0.183,0.087-0.324,0.223-0.402L304.857,264.053z"/>
					<g>
						<path style="fill:#BA68C8;" d="M298.59,265.658c-0.14-0.083-0.265-0.247-0.376-0.492l-0.443-0.973l0.154-0.09l0.439,0.963
							c0.167,0.367,0.352,0.491,0.555,0.372c0.098-0.058,0.154-0.147,0.165-0.268c0.011-0.121-0.025-0.275-0.11-0.46l-0.439-0.963
							l0.15-0.088l0.443,0.973c0.112,0.246,0.157,0.457,0.136,0.634c-0.021,0.176-0.104,0.307-0.248,0.391
							C298.872,265.741,298.73,265.742,298.59,265.658z"/>
						<path style="fill:#BA68C8;" d="M299.824,263.193c0.129,0.059,0.235,0.182,0.32,0.367c0.085,0.186,0.111,0.355,0.079,0.508
							c-0.032,0.153-0.118,0.27-0.258,0.352l-0.267,0.156l0.236,0.518l-0.154,0.09L299,263.474l0.421-0.246
							C299.561,263.146,299.695,263.135,299.824,263.193z M300.042,263.981c0.021-0.096,0.004-0.206-0.053-0.33
							c-0.056-0.124-0.125-0.204-0.207-0.24c-0.081-0.036-0.171-0.025-0.269,0.032l-0.262,0.153l0.35,0.768l0.262-0.153
							C299.961,264.154,300.02,264.077,300.042,263.981z"/>
						<path style="fill:#BA68C8;" d="M300.098,262.832l0.455-0.266c0.114-0.067,0.232-0.09,0.353-0.07
							c0.121,0.02,0.236,0.081,0.343,0.182c0.108,0.101,0.2,0.235,0.277,0.403c0.076,0.168,0.12,0.331,0.13,0.489
							c0.01,0.158-0.013,0.299-0.068,0.422c-0.056,0.123-0.141,0.219-0.255,0.285l-0.455,0.266L300.098,262.832z M301.227,264.07
							c0.087-0.051,0.152-0.123,0.194-0.216c0.042-0.093,0.059-0.198,0.05-0.316c-0.008-0.118-0.041-0.241-0.099-0.368
							c-0.058-0.127-0.127-0.229-0.207-0.305c-0.08-0.076-0.166-0.121-0.256-0.136c-0.091-0.015-0.18,0.003-0.267,0.054
							l-0.292,0.171l0.586,1.286L301.227,264.07z"/>
						<path style="fill:#BA68C8;" d="M302.629,262.976l-0.574,0.336l0.076,0.497l-0.159,0.093l-0.291-1.997l0.153-0.089l1.27,1.425
							l-0.162,0.095L302.629,262.976z M302.487,262.812l-0.615-0.702l0.149,0.975L302.487,262.812z"/>
						<path style="fill:#BA68C8;" d="M302.743,261.554l-0.37,0.216l-0.097-0.213l0.893-0.522l0.097,0.213l-0.37,0.217l0.683,1.499
							l-0.153,0.089L302.743,261.554z"/>
						<path style="fill:#BA68C8;" d="M304.804,261.977l0.097,0.213l-0.784,0.458l-0.779-1.711l0.762-0.446l0.097,0.213l-0.608,0.355
							l0.24,0.526l0.541-0.317l0.095,0.208l-0.542,0.317l0.252,0.552L304.804,261.977z"/>
					</g>
				</g>
			</g>
		</g>
		<path style="fill:#F28F8F;" d="M311.048,232.227c0.93,0.691,3.786,0.741,7.078,0.346c0,0,1.185-0.716,1.769-1.77
			C319.624,230.919,314.373,233.19,311.048,232.227z"/>
		<path style="fill:#FFA8A7;" d="M323.622,402.23v4.945c0,0-1.526,3.395-5.779,2.469c0,0-1.543-0.274-2.572-2.023
			c0,0-0.163-3.95-0.3-5.391"/>
		<path style="fill:#FFA8A7;" d="M345.005,388.707v2.984c0,0-1.029,1.749-3.532,1.475c-2.504-0.274-3.344-1.68-3.344-1.68
			l-0.069-3.224"/>
		<path style="fill:#FFA8A7;" d="M352.247,259.47l-11.638,3.09l0.926,3.795l-1.347-0.777l-4.69,7.564l8.838,4.69
			c0,0,3.607,2.406,6.065,2.357c2.002-0.04,5.159-1.802,5.63-5.59C356.502,270.812,352.247,259.47,352.247,259.47z"/>
		<path style="fill:#F28F8F;" d="M341.811,266.521c0,0,1.864,5.96,2.886,7.463c0,0-3.006-4.269-4.269-7.936"/>
		<path style="fill:#37474F;" d="M306.83,297.027c0,0,0.481,49.757,0.894,55.72c0.413,5.973,7.202,50.729,7.202,50.729
			c5.45,2.569,9.056,0,9.056,0s-0.202-1.652,0-4.221c0.201-2.579,2.156-25.616,1.954-33.846c-0.202-8.24-2.68-13.79-2.68-13.79
			l2.75-39.83l1.37-0.614c0,0,0.292,5.611,0.665,12.209l0.01,0.05c0.443,7.676,1.017,16.661,1.38,19.713
			c0.685,5.691,4.875,26.473,6.104,31.348c1.239,4.865,2.468,14.062,2.468,14.062c2.408,2.397,7.222,0.544,7.222,0.544
			s0.05-6.104,0.322-9.872c0.282-3.777,1.823-20.6,1.239-25.042c-0.594-4.432-3.022-12.269-3.223-13.851
			c-0.201-1.582,1.148-36.838,1.148-36.838c1.642-6.165,0.292-11.111,0.292-11.111L306.83,297.027z"/>
		<path style="fill:#BA68C8;" d="M339.027,238.131c0,0,6.001,2.299,9.286,8.509c3.285,6.21,6.025,14.307,6.025,14.307
			s-5.913,5.575-13.549,5.883L339.027,238.131z"/>
		<path style="opacity:0.2;" d="M339.027,238.131c0,0,6.001,2.299,9.286,8.509c3.285,6.21,6.025,14.307,6.025,14.307
			s-5.913,5.575-13.549,5.883L339.027,238.131z"/>
		<path style="fill:#BA68C8;" d="M345,292.341c0,0.029,0,0.048,0,0.048s-5.714,6.012-16.498,7.609
			c-9.86,1.453-20.231-2.174-21.953-2.819c0.298-6.445,1.077-20.231,1.472-27.282c0.154-2.646,0.25-4.348,0.25-4.348l-0.029,0.029
			l-1.943,1.886v-2.29c0,0-1.684-21.712,13.429-24.983c0,0,5.964,0.539,11.506-2.636c0,0,1.089-0.306,2.505-0.511
			c2.711-0.393,5.483,0.636,7.201,2.77c1.255,1.558,2.514,3.931,3.32,7.534c1.453,6.494-4.81,25.493-5.214,27.417
			C338.642,276.68,344.51,289.378,345,292.341z"/>
		<path style="fill:#FFA8A7;" d="M304.908,268.431c0,0-7.608,9.647-10.779,11.179c-3.172,1.533-24.94-14.45-27.777-15.694
			c-2.837-1.244-9.706-4.126-10.735-5.59c-1.029-1.464-0.514-2.608,0-3.245c0,0-0.154-1.583,1.209-2.345
			c0,0,0.077-2.617,1.723-3.052c0,0-4.852-6.41-4.224-7.31c0.627-0.9,2.171-0.36,3.611,1.106c1.44,1.466,7.455,9.041,8.15,9.257
			c0.694,0.216,1.157-2.449,2.289-3.958c1.132-1.51,2.87-1.544,2.818-0.284c-0.051,1.26-1.069,4.818-1.044,6.413
			c0.026,1.595,1.439,2.774,2.598,3.652c1.159,0.879,17.789,9.227,17.789,9.227l6.492-7.426"/>
		<path style="fill:#BA68C8;" d="M316.618,241.219c0,0-4.552-0.383-10.014,4.852c-5.462,5.235-12.02,14.436-12.02,14.436
			s3.369,6.567,10.32,10.147c0,0,13.07-13.255,15.611-19.645C323.056,244.619,316.618,241.219,316.618,241.219z"/>
		<path style="opacity:0.2;" d="M316.618,241.219c0,0-4.552-0.383-10.014,4.852c-5.462,5.235-12.02,14.436-12.02,14.436
			s3.369,6.567,10.32,10.147c0,0,13.07-13.255,15.611-19.645C323.056,244.619,316.618,241.219,316.618,241.219z"/>
		<path style="fill:#263238;" d="M327.377,311.174c0,0,0.292,5.611,0.665,12.209l0.01,0.05l0.554-11.373
			c2.639-1.551,5.278-5.057,5.439-5.278C330.611,309.965,327.377,311.174,327.377,311.174z"/>
		<path style="fill:#263238;" d="M315.986,202.527c0,0-2.072-2.797-6.161-0.713c-5.503,2.805-0.727,12.872-0.727,12.872
			s0.787-5.336,6.078-8.523c0,0-1.022,8.177-0.722,10.822c0.301,2.645,1.684,3.547,1.684,3.547s1.142-3.126,3.758-2.104
			c2.616,1.022,3.277,7.455-2.255,8.237c0,0,2.706,5.217,5.351,6.156s8.117,0.398,10.883-2.548c2.766-2.946,4.149-5.892,4.149-5.892
			l1.003,0.18c0,0-0.763,6.975,2.965,11.243c3.728,4.269,8.478,4.088,8.478,4.088s-0.902-3.307-0.661-5.772
			c0.24-2.465,1.623-15.452-0.391-19.841c-2.323-5.063-7.365-6.223-11.415-4.946c0,0-0.835-5.093-7.133-7.74
			C320.808,197.364,315.986,202.527,315.986,202.527z"/>
		<path style="fill:#BA68C8;" d="M338.002,209.333c0,0-2.263-0.685-3.346,4.125c-1.082,4.81,0.083,10.442,4.37,11.103
			c0,0-5.312,0.982-6.641-4.349C331.275,215.755,332.079,207.511,338.002,209.333z"/>
	</g>
</g>
</svg>
